<svg xmlns="http://www.w3.org/2000/svg" width="481" height="481" viewBox="0 0 481 481">
    <defs>
        <style>
            .a{fill:#e52e2e}.b{fill:#00b233}.c{fill:#0c0c0c}.d{fill:#e5e5e5}.e{fill:#d1d1d1;fill-rule:evenodd}
        </style>
        <filter id="wheel-a" x="211.202" y="36.503" width="58.82" height="58.66" filterUnits="userSpaceOnUse">
            <feOffset dy="7" input="SourceAlpha"/>
            <feGaussianBlur stdDeviation="5" result="b"/>
            <feFlood flood-opacity=".502"/>
            <feComposite operator="in" in2="b"/>
            <feComposite in="SourceGraphic"/>
        </filter>
        <filter id="wheel-d" x="211.202" y="36.503" width="58.82" height="58.66" filterUnits="userSpaceOnUse">
            <feOffset dy="7" input="SourceAlpha"/>
            <feGaussianBlur stdDeviation="5" result="e"/>
            <feFlood flood-opacity=".502"/>
            <feComposite operator="in" in2="e"/>
            <feComposite in="SourceGraphic"/>
        </filter>
    </defs>
    <path class="a" d="M10.759 249.781l41.315-1.732a186.378 186.378 0 0 0 4.087 31.749l-40.41 8.688a228.18 228.18 0 0 1-4.992-38.705zM425.652 103.433a227.87 227.87 0 0 1 20.418 33.235l.005.017-36.929 18.598c.012-.022-.005-.017-.005-.017a183.346 183.346 0 0 0-16.75-27.254zM369.508 49.646a228.646 228.646 0 0 1 30.357 24.503l-28.607 29.828a187.47 187.47 0 0 0-24.898-20.104z"/>
    <path class="b" d="M15.75 288.483l40.41-8.685q1.665 7.752 4.022 15.493t5.328 15.095l.005.014-38.361 15.388-.006-.017a225.749 225.749 0 0 1-6.49-18.406q-2.875-9.403-4.909-18.882z"/>
    <path class="a" d="M79.872 338.987a185.957 185.957 0 0 0 18.997 25.759L67.848 392.04l-.022-.01A228.81 228.81 0 0 1 44.65 360.65z"/>
    <path class="c" d="M446.07 136.668l.005.017a230.839 230.839 0 0 1 14.49 36.213l-39.522 12.084a188.371 188.371 0 0 0-11.896-29.697c.011-.022-.006-.017-.006-.017zM399.865 74.15l.017-.006q7.011 6.709 13.466 14.054 6.467 7.324 12.304 15.235l-33.266 24.562a183.75 183.75 0 0 0-21.128-24.018zM335.466 30.608a229.683 229.683 0 0 1 34.042 19.038l-23.152 34.228a189.7 189.7 0 0 0-27.943-15.622zM260.244 10.914a229.172 229.172 0 0 1 38.445 6.642l-10.43 39.997a186.758 186.758 0 0 0-31.541-5.446zM182.783 17.517a230.234 230.234 0 0 1 38.436-6.602l3.48 41.194a187.9 187.9 0 0 0-31.524 5.428zM145.97 30.475l17.004 37.675a187.624 187.624 0 0 0-27.953 15.571l-23.135-34.26a228.868 228.868 0 0 1 34.085-18.986zM81.514 73.965l.017-.005 28.597 29.87c-.005-.017-.017.006-.017.006a185.948 185.948 0 0 0-21.144 24.014l-33.22-24.588a228.94 228.94 0 0 1 25.767-29.297zM35.292 136.478l36.883 18.62a191.3 191.3 0 0 0-11.954 29.677l-39.518-12.121a233.54 233.54 0 0 1 14.59-36.176zM12.442 210.785l40.98 5.286a185.956 185.956 0 0 0-1.348 31.978l-41.315 1.732a227.722 227.722 0 0 1 1.688-38.979zM65.51 310.383l.005.017a185.8 185.8 0 0 0 14.357 28.587L44.65 360.652a227.6 227.6 0 0 1-17.496-34.861l-.005-.017zM98.87 364.746l.017-.005a186.994 186.994 0 0 0 23.117 22.15l-25.986 32.145q-3.779-3.045-7.443-6.274a226.779 226.779 0 0 1-20.727-20.722l-.022-.01zM148.508 404.814a193.415 193.415 0 0 0 29.158 13.202l-13.795 38.958a232.089 232.089 0 0 1-35.53-16.101zM208.622 426.102a185.647 185.647 0 0 0 31.88 2.75l-.007 41.339-.017.005a230.855 230.855 0 0 1-34.063-2.571 155.334 155.334 0 0 1-4.8-.768zM295.766 420.564c2.56-.783 5.105-1.616 7.598-2.51l13.756 38.992a252.555 252.555 0 0 1-9.273 3.044 230.2 230.2 0 0 1-28.481 6.77l-6.964-40.73a191.883 191.883 0 0 0 23.364-5.566zM359.092 387.02l25.96 32.18a227.778 227.778 0 0 1-32.356 21.823l-20.148-36.1a184.64 184.64 0 0 0 26.544-17.903zM436.404 360.813l-.017.006q-3.815 6.238-8.048 12.211a152.694 152.694 0 0 1-2.85 3.953q-5.807 7.834-12.278 15.215l-31.014-27.327a185.468 185.468 0 0 0 19.022-25.73zM425.059 279.992l40.398 8.732a229.959 229.959 0 0 1-11.474 37.272l-38.332-15.433a188.33 188.33 0 0 0 9.408-30.571zM427.788 216.269l41-5.224.016-.005c.419 3.273.775 6.527 1.04 9.791.17 2.034.323 4.072.437 6.105.179 2.857.28 5.701.337 8.54q.175 7.302-.157 14.535l-41.312-1.765a183.6 183.6 0 0 0-1.361-31.977z"/>
    <path class="a" d="M298.689 17.556a229.806 229.806 0 0 1 36.777 13.052l-17.053 37.644a185.477 185.477 0 0 0-30.155-10.699zM221.218 10.912a227.659 227.659 0 0 1 39.026.002l-3.528 41.198a186.354 186.354 0 0 0-32-.007zM173.377 20.183a249.522 249.522 0 0 1 9.406-2.666l10.392 40.02c-2.58.657-5.138 1.383-7.717 2.17a191.692 191.692 0 0 0-22.481 8.451l-17.003-37.675a233.972 233.972 0 0 1 27.403-10.3zM111.886 49.462l23.138 34.264a183.987 183.987 0 0 0-24.896 20.104c-.005-.017-.017.006-.017.006L81.514 73.964l.017-.005a230.043 230.043 0 0 1 30.355-24.497zM55.747 103.262l33.22 24.588a193.342 193.342 0 0 0-16.792 27.248l-36.883-18.62a232.106 232.106 0 0 1 20.455-33.216zM20.708 172.671l39.513 12.104a186.766 186.766 0 0 0-6.782 31.29l-.017.006-40.975-5.269-.005-.017a228.888 228.888 0 0 1 8.266-38.114zM122.004 386.892a191.474 191.474 0 0 0 26.504 17.922l-20.166 36.058a233.256 233.256 0 0 1-32.323-21.837zM177.665 418.013a186.066 186.066 0 0 0 30.956 8.086l-7.008 40.755a228.908 228.908 0 0 1-37.743-9.883zM240.503 428.851a187.716 187.716 0 0 0 31.897-2.723l6.964 40.73a228.9 228.9 0 0 1-38.883 3.356l-.005-.017zM332.548 404.923l20.148 36.1a230.654 230.654 0 0 1-35.576 16.023l-13.76-38.992a186.411 186.411 0 0 0 29.188-13.13zM382.196 364.87l31.014 27.326a229.092 229.092 0 0 1-28.16 27.003l-25.958-32.18a186.724 186.724 0 0 0 23.104-22.15zM415.64 310.586l38.35 15.427a231.049 231.049 0 0 1-17.579 34.817l-.005-.017-.017.005-35.167-21.68a188.191 188.191 0 0 0 14.418-28.552zM429.146 248.247l41.317 1.782a228.145 228.145 0 0 1-5.005 38.695l-40.398-8.732a186.346 186.346 0 0 0 4.086-31.745zM421.042 184.98l39.522-12.084a229.137 229.137 0 0 1 8.223 38.147l-41 5.224a188.471 188.471 0 0 0-6.745-31.287z"/>
    <path class="b" d="M56.16 279.798l184.452-39.662L65.515 310.4q-2.96-7.38-5.333-15.111t-4.021-15.491z"/>
    <path class="a" d="M392.392 128.012a183.549 183.549 0 0 1 16.754 27.271l-168.534 84.853z"/>
    <path class="a" d="M346.356 83.874a187.47 187.47 0 0 1 24.902 20.103l-130.646 136.16zM288.258 57.553a185.477 185.477 0 0 1 30.158 10.698l-77.804 171.885z"/>
    <path class="a" d="M224.714 52.1a186.354 186.354 0 0 1 32 .007l-16.102 188.03z"/>
    <path class="a" d="M185.457 59.704c2.582-.79 5.137-1.514 7.717-2.17l47.438 182.602-77.637-171.982a191.692 191.692 0 0 1 22.482-8.45z"/>
    <path class="a" d="M135.023 83.726l105.59 156.41-130.507-136.299a185.846 185.846 0 0 1 24.917-20.11zM88.967 127.85l151.645 112.286-168.437-85.038a193.272 193.272 0 0 1 16.792-27.248zM60.221 184.775l180.391 55.361-187.189-24.062a188.566 188.566 0 0 1 6.798-31.299zM52.074 248.05l188.538-7.914-184.451 39.662a186.378 186.378 0 0 1-4.087-31.749z"/>
    <path class="a" d="M240.612 240.136L98.887 364.741l-.018.005a185.957 185.957 0 0 1-18.997-25.76zM240.612 240.136l-92.104 164.678a191.474 191.474 0 0 1-26.504-17.922zM240.612 240.136l-31.99 185.97a186.015 186.015 0 0 1-30.955-8.088zM240.612 240.136l31.791 185.995a187.716 187.716 0 0 1-31.898 2.723zM240.612 240.136l91.937 164.79a186.411 186.411 0 0 1-29.188 13.132zM240.612 240.136l141.585 124.736a186.724 186.724 0 0 1-23.104 22.151zM240.612 240.136l175.029 70.452a188.191 188.191 0 0 1-14.421 28.553zM240.612 240.136l188.535 8.114a186.346 186.346 0 0 1-4.088 31.745zM240.612 240.136l180.431-55.154a188.471 188.471 0 0 1 6.743 31.29z"/>
    <path class="c" d="M409.14 155.266a188.584 188.584 0 0 1 11.902 29.714l-180.43 55.156z"/>
    <path class="c" d="M371.258 103.977a183.75 183.75 0 0 1 21.132 24.017L240.612 240.136z"/>
    <path class="c" d="M256.716 52.112a186.758 186.758 0 0 1 31.54 5.447l-47.644 182.577zM193.174 57.533a187.9 187.9 0 0 1 31.523-5.428l15.915 188.031z"/>
    <path class="c" d="M162.975 68.154l77.637 171.982-105.59-156.41a187.624 187.624 0 0 1 27.953-15.572z"/>
    <path class="c" d="M110.128 103.83l130.484 136.306L88.967 127.85a186.128 186.128 0 0 1 21.16-24.02zM72.175 155.098l168.437 85.038-180.391-55.361a190.156 190.156 0 0 1 11.954-29.677z"/>
    <path class="c" d="M53.422 216.07l.017-.004 187.173 24.07-188.538 7.913a185.956 185.956 0 0 1 1.348-31.978zM240.612 240.136L79.872 338.99a186.3 186.3 0 0 1-14.362-28.603zM240.612 240.136L122.004 386.892a188.711 188.711 0 0 1-23.135-22.146zM240.612 240.136l-62.947 177.877a193.5 193.5 0 0 1-29.158-13.202zM240.612 240.136l-.108 188.718a185.647 185.647 0 0 1-31.881-2.749zM240.612 240.136l62.75 177.922c-2.49.892-5.035 1.726-7.599 2.51a191.883 191.883 0 0 1-23.364 5.564zM240.612 240.136l118.481 146.887a184.738 184.738 0 0 1-26.544 17.904zM240.612 240.136l160.61 99.002a185.468 185.468 0 0 1-19.023 25.73zM240.612 240.136l184.447 39.859a188.33 188.33 0 0 1-9.407 30.571zM240.612 240.136l187.176-23.867a184.068 184.068 0 0 1 1.358 31.978z"/>
    <path class="c" d="M318.413 68.253a189.615 189.615 0 0 1 27.943 15.62L240.612 240.137z"/>
    <path class="d" d="M61.38 332.168l4.813 9.552-1.563.782-8.908-1.619a15.807 15.807 0 0 0-3.217-.3 5.566 5.566 0 0 0-2.242.595 4.03 4.03 0 0 0-1.89 1.742 2.238 2.238 0 0 0-.004 2.092 2.7 2.7 0 0 0 1.913 1.559 4.59 4.59 0 0 0 2.949-.588l1.044 2.075a6.194 6.194 0 0 1-4.466.633 4.981 4.981 0 0 1-3.222-2.773 4.7 4.7 0 0 1-.37-3.85 5.239 5.239 0 0 1 2.734-2.85q2.538-1.278 7.334-.378l6.89 1.298-3.565-7.076zM39.23 330.753l1.843-.928.173.337a4.716 4.716 0 0 0 3.04 2.549 7.628 7.628 0 0 0 4.757-.705 4 4 0 0 1-2.897-2.193 3.916 3.916 0 0 1 .045-3.778 7.674 7.674 0 0 1 3.523-3.161 7.485 7.485 0 0 1 4.864-.912 4.438 4.438 0 0 1 3.22 2.504 4.353 4.353 0 0 1-.156 4.275 9.549 9.549 0 0 1-4.257 3.73l-.834.42a18.666 18.666 0 0 1-5.991 2.06 6.9 6.9 0 0 1-4.24-.682 7.367 7.367 0 0 1-2.907-3.164zm8.9-1.496a2.559 2.559 0 0 0 1.432 1.235 4.077 4.077 0 0 0 2.164.203l.855-.432a7.7 7.7 0 0 0 3.02-2.436 2.366 2.366 0 0 0 .398-2.46 2.281 2.281 0 0 0-1.99-1.28 7.22 7.22 0 0 0-5.669 2.856 2.22 2.22 0 0 0-.21 2.314zM71.349 368.176l-.88-1.195a2.792 2.792 0 0 0-2.022-1.252 3.49 3.49 0 0 0-2.393.804q-2.708 2.001-1.163 4.092a2.333 2.333 0 0 0 1.896 1.034 3.737 3.737 0 0 0 2.336-.842l1.373 1.862a5.332 5.332 0 0 1-3.882 1.13 5.152 5.152 0 0 1-4.323-5.72 5.629 5.629 0 0 1 2.43-3.447 4.769 4.769 0 0 1 2.403-.92 4.287 4.287 0 0 1 2.422.44q-.802-2.764 1.997-4.839a5.726 5.726 0 0 1 4.13-1.277 5.367 5.367 0 0 1 4.458 5.904 5.291 5.291 0 0 1-2.281 3.425l-1.382-1.87a3.7 3.7 0 0 0 1.514-2.032 2.45 2.45 0 0 0-.47-2.157 2.6 2.6 0 0 0-1.938-1.141 3.993 3.993 0 0 0-2.615.976q-2.8 2.07-.84 4.72l.827 1.123zM100.413 399.724l-1.072-1.032a2.785 2.785 0 0 0-2.205-.889 3.506 3.506 0 0 0-2.222 1.202q-2.33 2.43-.452 4.227a2.343 2.343 0 0 0 2.043.701 3.729 3.729 0 0 0 2.158-1.223l1.669 1.6a5.31 5.31 0 0 1-3.636 1.767 5.15 5.15 0 0 1-5.227-4.904 5.63 5.63 0 0 1 1.815-3.808 4.749 4.749 0 0 1 2.213-1.311 4.257 4.257 0 0 1 2.46.022c-.842-1.729-.458-3.43 1.15-5.106a5.714 5.714 0 0 1 3.855-1.957 5.367 5.367 0 0 1 5.393 5.064 5.308 5.308 0 0 1-1.672 3.764l-1.68-1.61a3.721 3.721 0 0 0 1.15-2.26 2.465 2.465 0 0 0-.83-2.047 2.613 2.613 0 0 0-2.104-.796 3.993 3.993 0 0 0-2.412 1.404q-2.41 2.515-.029 4.794l1.005.965zM92.696 390.717l-7.2 6.312-6.004-5.76 1.552-1.626 4.588 4.405 3.937-3.455a4.359 4.359 0 0 1-2.411-1.169 4.108 4.108 0 0 1-1.335-3.68 7.669 7.669 0 0 1 2.307-4.249 7.186 7.186 0 0 1 4.23-2.406 5.1 5.1 0 0 1 5.481 4.855 6.136 6.136 0 0 1-1.576 3.877l-1.572-1.506a4.471 4.471 0 0 0 1.033-2.436 2.464 2.464 0 0 0-.82-1.946 2.386 2.386 0 0 0-2.34-.613 5.776 5.776 0 0 0-2.75 1.763 5.266 5.266 0 0 0-1.526 2.774 2.57 2.57 0 0 0 .781 2.39 2.7 2.7 0 0 0 1.754.843l.875-.015zM132.147 410.003l1.94 1.308-9.083 13.423 4.341.764-1.238 1.828-6.43-1.193-.307-.206zM117.574 400.14l8.858 5.993-.98 1.45-8.565 2.932a16.032 16.032 0 0 0-2.956 1.306 5.489 5.489 0 0 0-1.666 1.612 4.035 4.035 0 0 0-.801 2.44 2.228 2.228 0 0 0 1.02 1.83 2.7 2.7 0 0 0 2.432.431 4.585 4.585 0 0 0 2.282-1.952l1.927 1.304a6.2 6.2 0 0 1-3.593 2.728 4.994 4.994 0 0 1-4.166-.85 4.707 4.707 0 0 1-2.2-3.181 5.225 5.225 0 0 1 1.002-3.824q1.59-2.35 6.212-3.903l6.65-2.228-6.562-4.44zM158.98 424.333l9.743 4.407-.721 1.595-7.949 4.334a15.9 15.9 0 0 0-2.694 1.79 5.447 5.447 0 0 0-1.367 1.87 3.99 3.99 0 0 0-.374 2.54 2.222 2.222 0 0 0 1.314 1.632 2.7 2.7 0 0 0 2.468.014 4.576 4.576 0 0 0 1.919-2.312l2.119.957a6.207 6.207 0 0 1-3.08 3.297 4.976 4.976 0 0 1-4.25-.137 4.7 4.7 0 0 1-2.708-2.76 5.222 5.222 0 0 1 .342-3.935q1.165-2.587 5.462-4.901l6.178-3.317-7.217-3.271zM141.328 431.865a5.086 5.086 0 0 1 1.634-2.061 4.673 4.673 0 0 1 2.284-.883 4.843 4.843 0 0 1-1.042-2.543 5.406 5.406 0 0 1 .49-2.84 5.512 5.512 0 0 1 2.905-3.023 5.4 5.4 0 0 1 6.763 3.063 6.112 6.112 0 0 1-2.167 6.446 4.676 4.676 0 0 1-2.548.902 4.547 4.547 0 0 1 .824 2.287 5.15 5.15 0 0 1-.484 2.568 5.43 5.43 0 0 1-2.777 2.958 4.9 4.9 0 0 1-6.278-2.828 5.441 5.441 0 0 1 .396-4.046zm2.126.918a3.914 3.914 0 0 0-.359 2.45 2.155 2.155 0 0 0 3.204 1.464 3.988 3.988 0 0 0 1.586-1.907 3.853 3.853 0 0 0 .37-2.444 2.12 2.12 0 0 0-1.245-1.53 2.079 2.079 0 0 0-1.983.084 3.9 3.9 0 0 0-1.574 1.882zm3.338-8.235a4.16 4.16 0 0 0-.38 2.718 2.464 2.464 0 0 0 1.449 1.744 2.391 2.391 0 0 0 2.259-.072 4.294 4.294 0 0 0 1.766-2.09 4.055 4.055 0 0 0 .396-2.645 2.777 2.777 0 0 0-3.764-1.708 4.082 4.082 0 0 0-1.726 2.05zM180.249 450.963l10.856-15.53 2.352.614-10.684 14.921 8.25 2.156-.505 1.931-10.616-2.77zM225.005 441.004l10.655.913-.149 1.743-6.05 6.734a16.04 16.04 0 0 0-1.943 2.587 5.416 5.416 0 0 0-.67 2.216 4.032 4.032 0 0 0 .495 2.523 2.222 2.222 0 0 0 1.78 1.102 2.7 2.7 0 0 0 2.33-.817 4.571 4.571 0 0 0 1.041-2.816l2.316.196a6.2 6.2 0 0 1-1.805 4.134 4.987 4.987 0 0 1-4.054 1.29 4.707 4.707 0 0 1-3.47-1.703 5.229 5.229 0 0 1-.993-3.825q.24-2.83 3.521-6.44l4.721-5.189-7.897-.676zM213.573 448.235a4.071 4.071 0 0 1 3.4-1.492 3.865 3.865 0 0 1 3.162 2.041 9.234 9.234 0 0 1-.917 9.378 4.332 4.332 0 0 1-3.815 1.496 4.267 4.267 0 0 1-3.585-2.41 10.6 10.6 0 0 1-.864-5.905l.06-.717a22.423 22.423 0 0 1 .92-5.092 8.423 8.423 0 0 1 1.676-3.048 5.952 5.952 0 0 1 2.53-1.621 9.068 9.068 0 0 1 3.652-.314l-.176 2.055-.406-.036a4.891 4.891 0 0 0-3.865 1.176 7.262 7.262 0 0 0-1.772 4.489zm2.832.478a2.5 2.5 0 0 0-1.695.56 4.659 4.659 0 0 0-1.402 1.733l-.087 1.021a7.993 7.993 0 0 0 .494 3.94 2.371 2.371 0 0 0 1.86 1.672 2.256 2.256 0 0 0 2.105-1.068 6.205 6.205 0 0 0 1.014-3.148 6.45 6.45 0 0 0-.444-3.293 2.2 2.2 0 0 0-1.847-1.422zM262.938 440.435l2.328-.197 1.367 16.146 3.855-2.136.183 2.203-5.748 3.11-.368.03zM247.442 455.936a5.046 5.046 0 0 1 .422-2.593 4.636 4.636 0 0 1 1.562-1.886 4.854 4.854 0 0 1-2.148-1.713 5.371 5.371 0 0 1-.956-2.72 5.5 5.5 0 0 1 1.06-4.055 5.4 5.4 0 0 1 7.399-.625 6.1 6.1 0 0 1 1.249 6.686 4.642 4.642 0 0 1-1.784 2.03 4.535 4.535 0 0 1 1.837 1.595 5.155 5.155 0 0 1 .827 2.48 5.437 5.437 0 0 1-.98 3.935 4.913 4.913 0 0 1-6.86.596 5.452 5.452 0 0 1-1.628-3.73zm2.305-.235a3.909 3.909 0 0 0 .879 2.315 2.154 2.154 0 0 0 3.51-.286 4 4 0 0 0 .454-2.44 3.85 3.85 0 0 0-.867-2.313 2.209 2.209 0 0 0-3.523.31 3.9 3.9 0 0 0-.453 2.414zm-1.105-8.82a4.152 4.152 0 0 0 .991 2.558 2.458 2.458 0 0 0 2.114.818 2.4 2.4 0 0 0 1.937-1.167 4.3 4.3 0 0 0 .517-2.682 4.032 4.032 0 0 0-.943-2.504 2.777 2.777 0 0 0-4.116.348 4.058 4.058 0 0 0-.5 2.63zM292.82 434.73l10.353-2.688.44 1.691-3.463 8.365a15.854 15.854 0 0 0-.97 3.082 5.487 5.487 0 0 0 .106 2.316 4.013 4.013 0 0 0 1.305 2.216 2.229 2.229 0 0 0 2.049.448 2.705 2.705 0 0 0 1.925-1.541 4.568 4.568 0 0 0 .043-3.006l2.25-.583a6.21 6.21 0 0 1-.324 4.499 5 5 0 0 1-3.393 2.566 4.722 4.722 0 0 1-3.84-.448 5.245 5.245 0 0 1-2.208-3.277q-.712-2.747 1.174-7.243l2.718-6.465-7.668 1.994zM279.44 438.207l10.35-2.69.44 1.693-3.462 8.363a15.977 15.977 0 0 0-.968 3.085 5.436 5.436 0 0 0 .105 2.314 4.02 4.02 0 0 0 1.305 2.216 2.233 2.233 0 0 0 2.048.446 2.691 2.691 0 0 0 1.924-1.54 4.566 4.566 0 0 0 .043-3.007l2.25-.584a6.215 6.215 0 0 1-.322 4.501 4.988 4.988 0 0 1-3.394 2.564 4.694 4.694 0 0 1-3.838-.448 5.239 5.239 0 0 1-2.21-3.275q-.712-2.747 1.174-7.245l2.719-6.463-7.669 1.992zM324.532 431.481a4.057 4.057 0 0 1 2.24-2.961 3.86 3.86 0 0 1 3.752.24 9.252 9.252 0 0 1 3.776 8.636 4.344 4.344 0 0 1-2.603 3.164 4.266 4.266 0 0 1-4.304-.357 10.605 10.605 0 0 1-3.632-4.73l-.296-.656a22.573 22.573 0 0 1-1.68-4.895 8.416 8.416 0 0 1-.02-3.481 5.932 5.932 0 0 1 1.417-2.649 9.206 9.206 0 0 1 3.031-2.056l.85 1.882-.367.164a4.9 4.9 0 0 0-2.8 2.912 7.234 7.234 0 0 0 .636 4.787zm2.704-.963a2.49 2.49 0 0 0-1.209 1.31 4.658 4.658 0 0 0-.374 2.197l.42.936a8.032 8.032 0 0 0 2.355 3.195 2.36 2.36 0 0 0 2.439.549 2.243 2.243 0 0 0 1.316-1.954 6.189 6.189 0 0 0-.652-3.244 6.425 6.425 0 0 0-1.99-2.658 2.194 2.194 0 0 0-2.305-.331zM366.816 410.14l-1.232.832a2.789 2.789 0 0 0-1.336 1.965 3.507 3.507 0 0 0 .702 2.426q1.883 2.79 4.038 1.335a2.358 2.358 0 0 0 1.119-1.85 3.766 3.766 0 0 0-.743-2.365l1.914-1.296a5.319 5.319 0 0 1 .963 3.926 5.155 5.155 0 0 1-5.9 4.077 5.639 5.639 0 0 1-3.335-2.575 4.747 4.747 0 0 1-.818-2.438 4.288 4.288 0 0 1 .542-2.405q-2.798.69-4.75-2.198a5.718 5.718 0 0 1-1.102-4.182 5.367 5.367 0 0 1 6.089-4.204 5.313 5.313 0 0 1 3.324 2.425l-1.926 1.3a3.749 3.749 0 0 0-1.968-1.6 2.474 2.474 0 0 0-2.172.382 2.614 2.614 0 0 0-1.223 1.888 4.005 4.005 0 0 0 .864 2.654q1.951 2.886 4.684 1.04l1.155-.78zM346.06 411.18l1.941-1.31 9.068 13.43 2.324-3.744 1.236 1.83-3.504 5.522-.307.206zM383.55 381.284l1.69-1.62 11.206 11.707 1.66-4.083 1.527 1.595-2.52 6.032-.268.254zM376.653 396.785l-1.54 1.475-1.373-1.435 1.536-1.473-3.072-3.21 1.682-1.608 3.072 3.208 5.22-4.998.991 1.033 4.036 14.499-1.763 1.689zm5.04-4.824l-3.362 3.216 6.29 6.57zM403.216 358.072l6.364-8.598 1.403 1.036 2.562 8.684a16.116 16.116 0 0 0 1.183 3.01 5.53 5.53 0 0 0 1.537 1.733 4.046 4.046 0 0 0 2.407.904 2.237 2.237 0 0 0 1.874-.94 2.713 2.713 0 0 0 .533-2.41 4.574 4.574 0 0 0-1.857-2.36l1.384-1.868a6.2 6.2 0 0 1 2.573 3.704 4.971 4.971 0 0 1-1.026 4.126 4.707 4.707 0 0 1-3.27 2.062 5.212 5.212 0 0 1-3.776-1.16q-2.281-1.69-3.64-6.373l-1.944-6.737-4.715 6.367zM401.831 373.659a12.751 12.751 0 0 1-4.355-4.758 4.638 4.638 0 0 1 4.516-6.24 11.877 11.877 0 0 1 5.642 2.54l2.639 1.955a12.394 12.394 0 0 1 4.286 4.72 4.688 4.688 0 0 1-4.496 6.25 11.561 11.561 0 0 1-5.541-2.474zm4.054.11a11.156 11.156 0 0 0 3.995 2.125 2.294 2.294 0 0 0 2.549-3.393 10.641 10.641 0 0 0-3.013-3.097l-3.169-2.347a11.343 11.343 0 0 0-4.065-2.14 2.255 2.255 0 0 0-2.487.808 2.194 2.194 0 0 0-.09 2.53 11.12 11.12 0 0 0 3.103 3.165zM419.5 331.646l1.058-2.087 14.467 7.303.204-4.402 1.977.994-.369 6.527-.164.328zM445.972 292.806l-.439 1.419a2.779 2.779 0 0 0 .195 2.368 3.508 3.508 0 0 0 2.074 1.445q3.218.987 3.977-1.495a2.344 2.344 0 0 0-.291-2.14 3.743 3.743 0 0 0-2.065-1.378l.678-2.21a5.324 5.324 0 0 1 3.213 2.45 5.148 5.148 0 0 1-2.026 6.876 5.629 5.629 0 0 1-4.217.095 4.725 4.725 0 0 1-2.164-1.385 4.261 4.261 0 0 1-1.094-2.21q-1.75 2.296-5.078 1.276a5.719 5.719 0 0 1-3.482-2.564 5.362 5.362 0 0 1 2.095-7.094 5.3 5.3 0 0 1 4.11-.202l-.68 2.221a3.715 3.715 0 0 0-2.536-.006 2.465 2.465 0 0 0-1.452 1.657 2.6 2.6 0 0 0 .237 2.237 3.979 3.979 0 0 0 2.337 1.522q3.33 1.024 4.295-2.13l.41-1.335zM441.917 306.021l-.437 1.42a2.785 2.785 0 0 0 .194 2.37 3.509 3.509 0 0 0 2.071 1.446q3.217.987 3.98-1.497a2.352 2.352 0 0 0-.292-2.142 3.748 3.748 0 0 0-2.065-1.375l.683-2.212a5.314 5.314 0 0 1 3.212 2.45 5.147 5.147 0 0 1-2.025 6.876 5.635 5.635 0 0 1-4.217.095 4.711 4.711 0 0 1-2.165-1.387 4.247 4.247 0 0 1-1.094-2.21q-1.749 2.298-5.077 1.275a5.713 5.713 0 0 1-3.48-2.561 5.366 5.366 0 0 1 2.092-7.096 5.32 5.32 0 0 1 4.111-.203l-.68 2.222a3.717 3.717 0 0 0-2.535-.004 2.457 2.457 0 0 0-1.452 1.658 2.588 2.588 0 0 0 .237 2.236 3.961 3.961 0 0 0 2.335 1.52q3.331 1.024 4.297-2.128l.41-1.334zM440.858 259.843l.3-2.32 16.073 2.065-1.275-4.22 2.19.282 1.829 6.278-.047.367zM457.94 277.157l-2.05-.263.05-.378a4.723 4.723 0 0 0-1.09-3.813 7.631 7.631 0 0 0-4.339-2.078 3.98 3.98 0 0 1 1.171 3.435 3.907 3.907 0 0 1-2.152 3.107 7.691 7.691 0 0 1-4.689.651 7.5 7.5 0 0 1-4.542-1.97 4.434 4.434 0 0 1-1.264-3.876 4.347 4.347 0 0 1 2.526-3.453 9.485 9.485 0 0 1 5.613-.71l.928.12a18.688 18.688 0 0 1 6.12 1.65 6.908 6.908 0 0 1 3.126 2.939 7.376 7.376 0 0 1 .64 4.246zm-8.215-3.743a2.55 2.55 0 0 0-.496-1.827 4.054 4.054 0 0 0-1.677-1.382l-.95-.122a7.75 7.75 0 0 0-3.866.33 2.365 2.365 0 0 0-1.71 1.818 2.275 2.275 0 0 0 .933 2.17 6.036 6.036 0 0 0 3.053 1.135 6.149 6.149 0 0 0 3.246-.327 2.223 2.223 0 0 0 1.467-1.795zM441.574 229.431l-.445-10.688 1.749-.075 7.447 5.148a15.911 15.911 0 0 0 2.81 1.597 5.474 5.474 0 0 0 2.286.384 4.01 4.01 0 0 0 2.439-.81 2.224 2.224 0 0 0 .866-1.907 2.707 2.707 0 0 0-1.094-2.212 4.584 4.584 0 0 0-2.925-.674l-.099-2.324a6.2 6.2 0 0 1 4.327 1.266 4.979 4.979 0 0 1 1.794 3.857 4.7 4.7 0 0 1-1.248 3.657 5.226 5.226 0 0 1-3.666 1.47q-2.835.117-6.834-2.676l-5.746-4.017.328 7.914zM448.496 241.082l.091 2.13-1.985.084-.09-2.13-4.44.186-.095-2.325 4.44-.185-.304-7.22 1.431-.06 13.548 6.548.1 2.44zm-.292-6.97l.196 4.645 9.085-.382zM445.765 190.779l9.503-1.199 1.747 8.137-2.197.47-1.335-6.217-5.198.655a4.383 4.383 0 0 1 1.347 2.321 4.12 4.12 0 0 1-.96 3.797 7.7 7.7 0 0 1-4.292 2.226 7.122 7.122 0 0 1-4.85-.378 5.1 5.1 0 0 1-1.823-7.09 6.128 6.128 0 0 1 3.478-2.329l.456 2.129a4.488 4.488 0 0 0-2.22 1.44 2.465 2.465 0 0 0-.413 2.073 2.388 2.388 0 0 0 1.596 1.819 5.774 5.774 0 0 0 3.266.08 5.239 5.239 0 0 0 2.818-1.448 2.56 2.56 0 0 0 .693-2.416 2.711 2.711 0 0 0-.983-1.68l-.733-.476zM425.332 159.468l-.873-2.169 15.04-6.035-3.17-3.06 2.048-.825 4.657 4.591.137.341zM439.283 172.32a12.807 12.807 0 0 1-6.333 1.213 4.637 4.637 0 0 1-2.946-7.118 11.846 11.846 0 0 1 5.12-3.472l3.048-1.22a12.392 12.392 0 0 1 6.267-1.177 4.687 4.687 0 0 1 2.964 7.107 11.593 11.593 0 0 1-5.012 3.415zm2.217-3.397a11.139 11.139 0 0 0 3.9-2.289 2.23 2.23 0 0 0 .539-2.523 2.207 2.207 0 0 0-2.093-1.427 10.661 10.661 0 0 0-4.218.943l-3.658 1.467a11.352 11.352 0 0 0-3.953 2.338 2.256 2.256 0 0 0-.617 2.543 2.193 2.193 0 0 0 2.109 1.405 11.147 11.147 0 0 0 4.32-.982zM411.368 132.472l-5.6-9.11 1.49-.916 9.01.86a16.012 16.012 0 0 0 3.235.025 5.486 5.486 0 0 0 2.18-.781 4.009 4.009 0 0 0 1.734-1.897 2.219 2.219 0 0 0-.174-2.088 2.7 2.7 0 0 0-2.035-1.392 4.591 4.591 0 0 0-2.88.84l-1.22-1.981a6.2 6.2 0 0 1 4.398-1.009 4.973 4.973 0 0 1 3.446 2.495 4.687 4.687 0 0 1 .695 3.803 5.225 5.225 0 0 1-2.484 3.07q-2.416 1.488-7.27.998l-6.985-.702 4.155 6.748zM423.722 132.034l.777 1.266a2.786 2.786 0 0 0 1.908 1.418 3.5 3.5 0 0 0 2.455-.598q2.864-1.764 1.503-3.977a2.343 2.343 0 0 0-1.802-1.194 3.745 3.745 0 0 0-2.396.64l-1.21-1.968a5.329 5.329 0 0 1 3.962-.793 5.155 5.155 0 0 1 3.822 6.064 5.605 5.605 0 0 1-2.712 3.228 4.749 4.749 0 0 1-2.47.713 4.242 4.242 0 0 1-2.38-.645q.57 2.828-2.4 4.654a5.713 5.713 0 0 1-4.224.921 5.368 5.368 0 0 1-3.942-6.258 5.3 5.3 0 0 1 2.565-3.22l1.217 1.98a3.728 3.728 0 0 0-1.68 1.894 2.464 2.464 0 0 0 .286 2.187 2.611 2.611 0 0 0 1.835 1.303 3.991 3.991 0 0 0 2.687-.748q2.967-1.827 1.24-4.635l-.731-1.189zM405.468 100.362a5.061 5.061 0 0 1-2.336 1.205 4.66 4.66 0 0 1-2.447-.136 4.823 4.823 0 0 1-.1 2.75 5.4 5.4 0 0 1-1.616 2.385 5.5 5.5 0 0 1-3.892 1.557 5.4 5.4 0 0 1-4.902-5.575 6.125 6.125 0 0 1 4.63-4.984 4.692 4.692 0 0 1 2.695.228 4.548 4.548 0 0 1 .19-2.423 5.17 5.17 0 0 1 1.5-2.144 5.447 5.447 0 0 1 3.746-1.55 4.911 4.911 0 0 1 4.56 5.163 5.445 5.445 0 0 1-2.028 3.524zm-7.994 4.422a4.161 4.161 0 0 0 1.468-2.322 2.463 2.463 0 0 0-.601-2.185 2.391 2.391 0 0 0-2.089-.866 4.3 4.3 0 0 0-2.463 1.177 4.034 4.034 0 0 0-1.452 2.248 2.775 2.775 0 0 0 2.727 3.104 4.063 4.063 0 0 0 2.41-1.156zm6.439-6.133a3.883 3.883 0 0 0 1.334-2.082 2.089 2.089 0 0 0-.462-1.917 2.067 2.067 0 0 0-1.854-.733 3.948 3.948 0 0 0-2.227 1.083 3.846 3.846 0 0 0-1.346 2.073 2.1 2.1 0 0 0 .503 1.906 2.081 2.081 0 0 0 1.843.74 3.907 3.907 0 0 0 2.209-1.07zM366.752 68.468l1.155.934a2.776 2.776 0 0 0 2.273.702 3.5 3.5 0 0 0 2.113-1.378q2.116-2.617.094-4.251a2.345 2.345 0 0 0-2.094-.524 3.719 3.719 0 0 0-2.045 1.402l-1.804-1.453a5.305 5.305 0 0 1 3.471-2.068 4.686 4.686 0 0 1 3.722 1.091 4.68 4.68 0 0 1 1.904 3.351 5.625 5.625 0 0 1-1.487 3.947 4.7 4.7 0 0 1-2.092 1.494 4.271 4.271 0 0 1-2.453.185q1.477 2.477-.715 5.186a5.7 5.7 0 0 1-3.678 2.275 4.876 4.876 0 0 1-3.85-1.161 4.89 4.89 0 0 1-1.951-3.427 5.312 5.312 0 0 1 1.344-3.89l1.807 1.462a3.735 3.735 0 0 0-.955 2.349 2.474 2.474 0 0 0 1 1.965 2.615 2.615 0 0 0 2.162.616 3.985 3.985 0 0 0 2.284-1.602q2.191-2.713-.376-4.78l-1.083-.878zM381.519 83.731a12.771 12.771 0 0 1-4.938 4.148 4.177 4.177 0 0 1-4.333-.81 4.208 4.208 0 0 1-1.712-3.973 11.847 11.847 0 0 1 2.78-5.527l2.064-2.553a12.4 12.4 0 0 1 4.898-4.082 4.188 4.188 0 0 1 4.306.827 4.214 4.214 0 0 1 1.75 3.932 11.6 11.6 0 0 1-2.71 5.43zm.28-4.044a11.209 11.209 0 0 0 2.293-3.903 2.232 2.232 0 0 0-.762-2.467 2.2 2.2 0 0 0-2.521-.223 10.63 10.63 0 0 0-3.223 2.879l-2.48 3.067a11.371 11.371 0 0 0-2.31 3.969 2.256 2.256 0 0 0 .7 2.52 2.2 2.2 0 0 0 2.528.199 11.147 11.147 0 0 0 3.29-2.968zM334.262 60.92l-2.044-1.143 7.911-14.141-4.389-.392 1.078-1.927 6.505.644.323.18zM346.329 67.668l-2.043-1.14 7.91-14.144-4.386-.39 1.074-1.929 6.509.645.32.18zM302.613 36.198l1.406.494a2.793 2.793 0 0 0 2.377-.091 3.531 3.531 0 0 0 1.53-2.01q1.122-3.172-1.328-4.039a2.341 2.341 0 0 0-2.149.202 3.719 3.719 0 0 0-1.462 2.003l-2.181-.77a5.325 5.325 0 0 1 2.585-3.108 4.7 4.7 0 0 1 3.874-.21 4.686 4.686 0 0 1 2.911 2.528 5.641 5.641 0 0 1-.085 4.214 4.759 4.759 0 0 1-1.476 2.108 4.268 4.268 0 0 1-2.254.991q2.215 1.845 1.057 5.13a5.733 5.733 0 0 1-2.707 3.37 4.884 4.884 0 0 1-4.02.19 4.9 4.9 0 0 1-2.986-2.581 5.328 5.328 0 0 1-.029-4.119l2.194.777a3.706 3.706 0 0 0-.116 2.531 2.464 2.464 0 0 0 1.594 1.522 2.6 2.6 0 0 0 2.246-.142 3.976 3.976 0 0 0 1.62-2.273q1.162-3.283-1.95-4.381l-1.315-.467zM323.28 34.608l-.689 1.947-.361-.13a4.712 4.712 0 0 0-3.956.269 7.61 7.61 0 0 0-2.946 3.801 3.979 3.979 0 0 1 3.606-.423 3.91 3.91 0 0 1 2.585 2.76 7.68 7.68 0 0 1-.354 4.719 7.511 7.511 0 0 1-2.879 4.027 4.44 4.44 0 0 1-4.06.418 4.347 4.347 0 0 1-2.84-3.194 9.468 9.468 0 0 1 .49-5.64l.31-.881a18.743 18.743 0 0 1 2.9-5.634 6.891 6.891 0 0 1 3.532-2.44 7.393 7.393 0 0 1 4.29.266zm-5.39 7.237a2.554 2.554 0 0 0-1.889.1 4.045 4.045 0 0 0-1.706 1.349l-.32.902a7.718 7.718 0 0 0-.495 3.85 2.365 2.365 0 0 0 1.415 2.056 2.283 2.283 0 0 0 2.32-.454 6.045 6.045 0 0 0 1.75-2.747 6.088 6.088 0 0 0 .37-3.239 2.223 2.223 0 0 0-1.444-1.817zM269.461 39.909l-2.304-.396 2.75-15.972-4.266 1.095.374-2.176 6.35-1.56.364.063zM281.011 30.986l1.464.252a2.777 2.777 0 0 0 2.325-.493 3.5 3.5 0 0 0 1.17-2.24q.572-3.312-1.986-3.759a2.341 2.341 0 0 0-2.084.565 3.754 3.754 0 0 0-1.105 2.22l-2.28-.391a5.306 5.306 0 0 1 2.025-3.498 4.681 4.681 0 0 1 3.781-.863 4.692 4.692 0 0 1 3.297 1.997 5.644 5.644 0 0 1 .628 4.17 4.752 4.752 0 0 1-1.099 2.323 4.289 4.289 0 0 1-2.056 1.36q2.498 1.441 1.908 4.874a5.72 5.72 0 0 1-2.099 3.779 4.873 4.873 0 0 1-3.928.864 4.892 4.892 0 0 1-3.376-2.039 5.32 5.32 0 0 1-.725-4.053l2.292.393a3.722 3.722 0 0 0 .315 2.518 2.457 2.457 0 0 0 1.83 1.23 2.593 2.593 0 0 0 2.187-.519 3.973 3.973 0 0 0 1.22-2.512q.592-3.434-2.66-3.992l-1.374-.236zM239.11 37.903l-10.697-.006.003-1.75 5.455-7.225a16.126 16.126 0 0 0 1.719-2.736 5.473 5.473 0 0 0 .478-2.27 4.019 4.019 0 0 0-.706-2.473 2.227 2.227 0 0 0-1.867-.944 2.714 2.714 0 0 0-2.257 1.004 4.6 4.6 0 0 0-.795 2.9l-2.324-.003a6.2 6.2 0 0 1 1.447-4.27 4.979 4.979 0 0 1 3.928-1.628 4.7 4.7 0 0 1 3.604 1.402 5.219 5.219 0 0 1 1.311 3.724q0 2.842-2.966 6.717l-4.257 5.57 7.925.004zM252.801 20.14l-6.593 17.767-2.432-.001 6.578-17.135-8.532-.006.002-1.997 10.973.006zM206.112 21.446l.348 2.036-.378.065a4.722 4.722 0 0 0-3.325 2.16 7.622 7.622 0 0 0-.72 4.756 3.988 3.988 0 0 1 2.943-2.127 3.915 3.915 0 0 1 3.605 1.15 7.7 7.7 0 0 1 1.994 4.292 7.508 7.508 0 0 1-.555 4.92 4.444 4.444 0 0 1-3.336 2.344 4.337 4.337 0 0 1-4.04-1.404 9.5 9.5 0 0 1-2.325-5.16l-.156-.922a18.726 18.726 0 0 1-.217-6.333 6.918 6.918 0 0 1 1.896-3.85 7.416 7.416 0 0 1 3.874-1.859zm-1.178 8.949a2.561 2.561 0 0 0-1.599 1.012 4.083 4.083 0 0 0-.833 2.008l.161.945a7.73 7.73 0 0 0 1.45 3.6 2.361 2.361 0 0 0 2.237 1.103 2.278 2.278 0 0 0 1.804-1.53 6.029 6.029 0 0 0 .188-3.25 6.1 6.1 0 0 0-1.258-3.003 2.216 2.216 0 0 0-2.152-.885zM161.216 42.337l1.401-.494a2.788 2.788 0 0 0 1.79-1.566 3.528 3.528 0 0 0-.069-2.526q-1.12-3.172-3.572-2.308a2.342 2.342 0 0 0-1.545 1.51 3.723 3.723 0 0 0 .121 2.472l-2.18.771a5.311 5.311 0 0 1 .057-4.04 4.705 4.705 0 0 1 2.883-2.597 4.7 4.7 0 0 1 3.852.136 5.641 5.641 0 0 1 2.583 3.336 4.743 4.743 0 0 1 .172 2.562 4.236 4.236 0 0 1-1.13 2.19q2.883.039 4.05 3.324a5.731 5.731 0 0 1 .01 4.322 4.873 4.873 0 0 1-3.009 2.668 4.89 4.89 0 0 1-3.943-.134 5.306 5.306 0 0 1-2.605-3.185l2.191-.775a3.722 3.722 0 0 0 1.502 2.044 2.469 2.469 0 0 0 2.197.179 2.588 2.588 0 0 0 1.655-1.522 3.949 3.949 0 0 0-.165-2.78q-1.159-3.288-4.267-2.188l-1.315.464zM181.195 39.873l2.01-.71.658 1.872-2.009.71 1.479 4.19-2.192.775-1.478-4.19-6.815 2.406-.476-1.349 2.293-14.873 2.306-.81zm-6.578 2.324l4.386-1.55-3.025-8.578zM137.485 65.377l-2.043 1.14-7.897-14.153-2.633 3.534-1.077-1.927 3.96-5.203.321-.18zM144.066 41.355l2.908 18.728-2.121 1.183L142.24 43.1l-7.447 4.153-.974-1.746 9.582-5.346zM112.608 82.884l-8.326 6.715-1.096-1.361-.293-9.05a15.811 15.811 0 0 0-.387-3.211 5.439 5.439 0 0 0-1.049-2.063 3.991 3.991 0 0 0-2.101-1.481 2.231 2.231 0 0 0-2.05.436 2.716 2.716 0 0 0-1.123 2.2 4.556 4.556 0 0 0 1.202 2.753l-1.812 1.461a6.215 6.215 0 0 1-1.553-4.23 4.976 4.976 0 0 1 2.031-3.735 4.715 4.715 0 0 1 3.686-1.171 5.22 5.22 0 0 1 3.362 2.075q1.784 2.206 1.916 7.084l.184 7.011 6.166-4.973zM109.758 72.856l-5.348-7.946 6.474-5.22 1.414 1.746-4.95 3.992 2.928 4.345a4.337 4.337 0 0 1 1.468-2.245 4.1 4.1 0 0 1 3.817-.854 7.734 7.734 0 0 1 3.922 2.827 7.152 7.152 0 0 1 1.846 4.503 4.644 4.644 0 0 1-1.898 3.711 4.649 4.649 0 0 1-3.615 1.105 6.087 6.087 0 0 1-3.65-2.052l1.7-1.369a4.451 4.451 0 0 0 2.29 1.334 2.468 2.468 0 0 0 2.03-.564 2.394 2.394 0 0 0 .909-2.246 5.79 5.79 0 0 0-1.396-2.949 5.274 5.274 0 0 0-2.566-1.867 2.558 2.558 0 0 0-2.465.467 2.741 2.741 0 0 0-1.068 1.637l-.09.865zM92.68 101.52l-7.074 8.03-1.31-1.16-1.82-8.865a15.541 15.541 0 0 0-.922-3.099 5.5 5.5 0 0 0-1.384-1.86 4.015 4.015 0 0 0-2.323-1.1 2.221 2.221 0 0 0-1.946.775 2.715 2.715 0 0 0-.734 2.358 4.6 4.6 0 0 0 1.648 2.513l-1.536 1.743a6.173 6.173 0 0 1-2.25-3.907 4.975 4.975 0 0 1 1.373-4.027 4.7 4.7 0 0 1 3.43-1.78 5.229 5.229 0 0 1 3.663 1.476q2.133 1.875 3.082 6.66l1.371 6.878 5.239-5.946zM67.993 134.33l-5.612 9.107-1.488-.921-3.293-8.434a15.952 15.952 0 0 0-1.43-2.899 5.485 5.485 0 0 0-1.681-1.597 4 4 0 0 0-2.473-.693 2.23 2.23 0 0 0-1.787 1.093 2.7 2.7 0 0 0-.326 2.446 4.586 4.586 0 0 0 2.05 2.197l-1.22 1.98a6.209 6.209 0 0 1-2.878-3.47 4.984 4.984 0 0 1 .673-4.2 4.712 4.712 0 0 1 3.084-2.334 5.219 5.219 0 0 1 3.858.837q2.42 1.491 4.167 6.046l2.513 6.552 4.153-6.75zM73.27 125.771l-1.232 1.993-13.789-8.505-.574 4.368-1.88-1.159.917-6.472.193-.314zM48.745 157.9l.797-1.978 1.843.74-.797 1.978 4.122 1.658-.869 2.16-4.12-1.659-2.698 6.705-1.328-.536-9.644-11.55.912-2.265zm-2.604 6.473l1.74-4.315-8.44-3.398zM42.274 201.387l-.494 2.29-15.839-3.425.91 4.313-2.158-.468-1.288-6.403.08-.362zM37.355 185.443a4.065 4.065 0 0 1 1.049 3.559 3.874 3.874 0 0 1-2.427 2.878 7.871 7.871 0 0 1-4.768.234 7.878 7.878 0 0 1-4.416-2.333 4.332 4.332 0 0 1-.999-3.973 4.271 4.271 0 0 1 2.846-3.25 10.59 10.59 0 0 1 5.961-.107l.707.155a22.585 22.585 0 0 1 4.933 1.554 8.487 8.487 0 0 1 2.812 2.055 5.925 5.925 0 0 1 1.286 2.712 9.1 9.1 0 0 1-.152 3.662l-2.015-.436.088-.396a4.89 4.89 0 0 0-.677-3.984 7.246 7.246 0 0 0-4.228-2.33zm-.833 2.748a2.5 2.5 0 0 0-.342-1.755 4.661 4.661 0 0 0-1.538-1.61l-1-.217a8.022 8.022 0 0 0-3.972-.011 2.37 2.37 0 0 0-1.893 1.634 2.249 2.249 0 0 0 .79 2.222 6.205 6.205 0 0 0 2.997 1.407 6.461 6.461 0 0 0 3.322-.02 2.2 2.2 0 0 0 1.635-1.65zM38.818 235.395l-.105 2.333-16.189-.698 1.626 4.096-2.205-.096-2.356-6.098.017-.368zM29.57 227.146l-9.5-1.24.358-8.312 2.244.096-.273 6.358 5.198.674a4.357 4.357 0 0 1-.72-2.583 4.121 4.121 0 0 1 1.88-3.43 7.7 7.7 0 0 1 4.713-1.075 7.158 7.158 0 0 1 4.603 1.587 5.107 5.107 0 0 1-.023 7.32 6.137 6.137 0 0 1-3.953 1.382l.094-2.178a4.484 4.484 0 0 0 2.513-.836 2.472 2.472 0 0 0 .918-1.9 2.4 2.4 0 0 0-1.086-2.164 5.775 5.775 0 0 0-3.135-.897 5.249 5.249 0 0 0-3.095.688 2.565 2.565 0 0 0-1.279 2.162 2.709 2.709 0 0 0 .527 1.876l.589.644zM30.991 274.781l-.189-1.473a2.764 2.764 0 0 0-1.157-2.075 3.5 3.5 0 0 0-2.482-.466q-3.34.425-3.008 3.006a2.34 2.34 0 0 0 1.148 1.828 3.735 3.735 0 0 0 2.447.402l.294 2.295a5.313 5.313 0 0 1-3.939-.91 5.153 5.153 0 0 1-.986-7.102 5.65 5.65 0 0 1 3.803-1.82 4.725 4.725 0 0 1 2.545.372 4.274 4.274 0 0 1 1.903 1.565q.647-2.812 4.104-3.25a5.728 5.728 0 0 1 4.23.902 5.371 5.371 0 0 1 1.014 7.329 5.316 5.316 0 0 1-3.663 1.879l-.293-2.306a3.717 3.717 0 0 0 2.31-1.04 2.456 2.456 0 0 0 .639-2.106 2.6 2.6 0 0 0-1.134-1.942 3.988 3.988 0 0 0-2.758-.423q-3.456.441-3.035 3.71l.175 1.384zM38.927 252.045l1.353 10.61-1.736.217-7.858-4.5a15.938 15.938 0 0 0-2.936-1.356 5.447 5.447 0 0 0-2.31-.186 4 4 0 0 0-2.363 1.012 2.231 2.231 0 0 0-.7 1.973 2.708 2.708 0 0 0 1.28 2.11 4.6 4.6 0 0 0 2.976.422l.295 2.306a6.209 6.209 0 0 1-4.42-.893 4.987 4.987 0 0 1-2.113-3.691 4.7 4.7 0 0 1 .932-3.75 5.223 5.223 0 0 1 3.535-1.778q2.818-.36 7.036 2.084l6.065 3.518-1-7.86zM38.783 296.48a12.791 12.791 0 0 1 6.414-.672 4.64 4.64 0 0 1 2.33 7.34 11.859 11.859 0 0 1-5.396 3.023l-3.14.96a12.411 12.411 0 0 1-6.346.64 4.692 4.692 0 0 1-2.352-7.332 11.6 11.6 0 0 1 5.285-2.983zm-2.5 3.195a11.162 11.162 0 0 0-4.083 1.95 2.23 2.23 0 0 0-.75 2.468 2.206 2.206 0 0 0 1.965 1.595 10.667 10.667 0 0 0 4.284-.577l3.77-1.153a11.365 11.365 0 0 0 4.136-1.997 2.257 2.257 0 0 0 .832-2.48 2.2 2.2 0 0 0-1.983-1.58 11.1 11.1 0 0 0-4.39.61z"/>
    <path class="e" d="M240.881 469.132a230.16 230.16 0 1 1 212.125-141.634 230.286 230.286 0 0 1-212.125 141.634zm0-458.061c-126.128 0-228.375 102.131-228.375 228.115s102.247 228.117 228.375 228.117 228.376-102.132 228.376-228.117S367.006 11.071 240.881 11.071zm0 417.066a189.057 189.057 0 1 1 133.761-55.342 188.039 188.039 0 0 1-133.761 55.342zm0-376.071c-103.462 0-187.334 83.777-187.334 187.12s83.872 187.121 187.334 187.121 187.335-83.777 187.335-187.121-83.872-187.12-187.335-187.12z"/>
    <g>
        <ellipse filter="url(#wheel-a)" cx="14.41" cy="14.33" rx="14.41" ry="14.33" transform="translate(226.202 44.503)"/>
        <ellipse filter="url(#wheel-d)" cx="14.41" cy="14.33" rx="14.41" ry="14.33" transform="translate(226.202 44.503)"/>
    </g>
</svg>
