<svg xmlns="http://www.w3.org/2000/svg" width="480.854" height="480.777" viewBox="0 0 480.854 480.777">
    <g transform="translate(-93.583 -151.062)">
        <path
                d="M2968.581,131.491,3009.766,135q-.675,7.9-.684,15.992t.682,15.993V167l-41.184,3.5v-.018c-.557-6.433-.826-12.92-.826-19.5Q2967.754,141.15,2968.581,131.491Z"
                transform="translate(-2767.979 1181.729) rotate(-17)"
                fill="#00b233"
        />
        <path d="M3424.485,112.123v.018a230.839,230.839,0,0,1,3.269,38.867l-41.328,0a188.371,188.371,0,0,0-2.694-31.877c.018-.018,0-.018,0-.018Z" transform="translate(-2767.979 1181.729) rotate(-17)" fill="#009bd4" />
        <path d="M3398.578,38.827h.018q4.743,8.465,8.768,17.377,4.043,8.894,7.312,18.166l-38.993,13.763A183.75,183.75,0,0,0,3362.5,58.987Z" transform="translate(-2767.979 1181.729) rotate(-17)" fill="#009bd4" />
        <path d="M3349.723-21.64a229.683,229.683,0,0,1,26.988,28.159l-32.147,25.963a189.7,189.7,0,0,0-22.155-23.109Z" transform="translate(-2767.979 1181.729) rotate(-17)" fill="#009bd4" />
        <path d="M3283.546-62.467a229.172,229.172,0,0,1,34.823,17.592L3296.7-9.675a186.758,186.758,0,0,0-28.57-14.43Z" transform="translate(-2767.979 1181.729) rotate(-17)" fill="#009bd4" />
        <path d="M3207.539-78.8a230.234,230.234,0,0,1,38.687,4.925l-8.717,40.411a187.9,187.9,0,0,0-31.733-4.026Z" transform="translate(-2767.979 1181.729) rotate(-17)" fill="#009bd4" />
        <path d="M3168.547-77.171l5.245,41a187.624,187.624,0,0,0-31.284,6.719L3130.4-68.979A228.868,228.868,0,0,1,3168.547-77.171Z" transform="translate(-2767.979 1181.729) rotate(-17)" fill="#009bd4" />
        <path d="M3094.191-54.426h.018L3112.823-17.5c0-.018-.018,0-.018,0A185.948,185.948,0,0,0,3085.564-.717l-24.58-33.226A228.94,228.94,0,0,1,3094.191-54.426Z" transform="translate(-2767.979 1181.729) rotate(-17)" fill="#009bd4" />
        <path d="M3031.712-8.159l29.827,28.59a191.3,191.3,0,0,0-20.108,24.886l-34.248-23.146A233.54,233.54,0,0,1,3031.712-8.159Z" transform="translate(-2767.979 1181.729) rotate(-17)" fill="#009bd4" />
        <path d="M2988.135,56.221l37.644,17.036a185.956,185.956,0,0,0-10.639,30.187l-40.016-10.423a227.722,227.722,0,0,1,13.011-36.782Z" transform="translate(-2767.979 1181.729) rotate(-17)" fill="#009bd4" />
        <path d="M3009.764,166.982V167a185.8,185.8,0,0,0,5.372,31.536l-40.017,10.42a227.6,227.6,0,0,1-6.539-38.453v-.018Z" transform="translate(-2767.979 1181.729) rotate(-17)" fill="#009bd4" />
        <path d="M3025.772,228.723h.018a186.994,186.994,0,0,0,15.631,27.942l-34.249,23.142q-2.723-4.016-5.283-8.176a226.779,226.779,0,0,1-13.763-25.876l-.018-.017Z" transform="translate(-2767.979 1181.729) rotate(-17)" fill="#009bd4" />
        <path d="M3061.527,281.553a193.415,193.415,0,0,0,24.024,21.15l-24.583,33.223a232.089,232.089,0,0,1-29.27-25.786Z" transform="translate(-2767.979 1181.729) rotate(-17)" fill="#009bd4" />
        <path d="M3112.79,319.487a185.647,185.647,0,0,0,29.684,11.95l-12.094,39.531h-.018a230.855,230.855,0,0,1-31.822-12.418c-1.456-.682-2.912-1.4-4.367-2.138Z" transform="translate(-2767.979 1181.729) rotate(-17)" fill="#009bd4" />
        <path
                d="M3197.746,339.669c2.677,0,5.354-.053,8-.179L3207.5,380.8c-3.234.125-6.487.2-9.757.2a230.2,230.2,0,0,1-29.217-1.852l5.249-40.986A191.883,191.883,0,0,0,3197.746,339.669Z"
                transform="translate(-2767.979 1181.729) rotate(-17)"
                fill="#009bd4"
        />
        <path d="M3268.112,326.106l15.416,38.364a227.778,227.778,0,0,1-37.322,11.409l-8.713-40.413A184.64,184.64,0,0,0,3268.112,326.106Z" transform="translate(-2767.979 1181.729) rotate(-17)" fill="#009bd4" />
        <path
                d="M3349.708,323.648h-.018q-5.472,4.851-11.267,9.325c-1.275,1.007-2.569,1.977-3.881,2.947q-7.844,5.794-16.19,10.96l-21.669-35.2a185.468,185.468,0,0,0,25.714-19.045Z"
                transform="translate(-2767.979 1181.729) rotate(-17)"
                fill="#009bd4"
        />
        <path d="M3362.488,243.041l36.08,20.162a229.959,229.959,0,0,1-21.87,32.289l-32.145-25.966A188.33,188.33,0,0,0,3362.488,243.041Z" transform="translate(-2767.979 1181.729) rotate(-17)" fill="#009bd4" />
        <path
                d="M3383.729,182.9l40.735,6.992h.018c-.557,3.252-1.168,6.468-1.869,9.667-.432,1.995-.881,3.989-1.366,5.966-.665,2.785-1.4,5.534-2.175,8.265q-1.968,7.035-4.4,13.854l-38.991-13.766A183.6,183.6,0,0,0,3383.729,182.9Z"
                transform="translate(-2767.979 1181.729) rotate(-17)"
                fill="#009bd4"
        />
        <path d="M3015.136,198.535a185.957,185.957,0,0,0,10.636,30.188l-37.646,17.032-.018-.017a228.81,228.81,0,0,1-12.989-36.783Z" transform="translate(-2767.979 1181.729) rotate(-17)" fill="#e52e2e" />
        <path d="M3041.421,256.665a191.474,191.474,0,0,0,20.106,24.888L3031.7,310.14a233.256,233.256,0,0,1-24.526-30.333Z" transform="translate(-2767.979 1181.729) rotate(-17)" fill="#e52e2e" />
        <path d="M3085.551,302.7a186.066,186.066,0,0,0,27.239,16.784l-18.617,36.925a228.908,228.908,0,0,1-33.205-20.486Z" transform="translate(-2767.979 1181.729) rotate(-17)" fill="#e52e2e" />
        <path d="M3142.474,331.437a187.716,187.716,0,0,0,31.3,6.722l-5.249,40.986a228.9,228.9,0,0,1-38.165-8.159v-.018Z" transform="translate(-2767.979 1181.729) rotate(-17)" fill="#e52e2e" />
        <path d="M3237.493,335.466l8.713,40.413A230.654,230.654,0,0,1,3207.5,380.8l-1.759-41.311A186.411,186.411,0,0,0,3237.493,335.466Z" transform="translate(-2767.979 1181.729) rotate(-17)" fill="#e52e2e" />
        <path d="M3296.683,311.678l21.669,35.2a229.092,229.092,0,0,1-34.824,17.59l-15.416-38.364A186.724,186.724,0,0,0,3296.683,311.678Z" transform="translate(-2767.979 1181.729) rotate(-17)" fill="#e52e2e" />
        <path d="M3344.536,269.544,3376.7,295.51a231.049,231.049,0,0,1-26.99,28.156v-.018h-.018L3322.4,292.633A188.191,188.191,0,0,0,3344.536,269.544Z" transform="translate(-2767.979 1181.729) rotate(-17)" fill="#e52e2e" />
        <path d="M3375.678,213.878l38.991,13.784a228.145,228.145,0,0,1-16.1,35.541l-36.08-20.162A186.346,186.346,0,0,0,3375.678,213.878Z" transform="translate(-2767.979 1181.729) rotate(-17)" fill="#e52e2e" />
        <path d="M3386.426,151.006l41.328,0a229.137,229.137,0,0,1-3.29,38.884l-40.735-6.992A188.471,188.471,0,0,0,3386.426,151.006Z" transform="translate(-2767.979 1181.729) rotate(-17)" fill="#e52e2e" />
        <path d="M3414.676,74.37a227.87,227.87,0,0,1,9.809,37.753v.018l-40.753,6.988c.018-.018,0-.018,0-.018a183.346,183.346,0,0,0-8.049-30.96Z" transform="translate(-2767.979 1181.729) rotate(-17)" fill="#e52e2e" />
        <path d="M3376.711,6.519a228.646,228.646,0,0,1,21.867,32.308L3362.5,58.987a187.47,187.47,0,0,0-17.932-26.505Z" transform="translate(-2767.979 1181.729) rotate(-17)" fill="#e52e2e" />
        <path d="M3318.369-44.875a229.806,229.806,0,0,1,31.354,23.235L3322.409,9.373A185.477,185.477,0,0,0,3296.7-9.675Z" transform="translate(-2767.979 1181.729) rotate(-17)" fill="#e52e2e" />
        <path d="M3246.226-73.879a227.659,227.659,0,0,1,37.32,11.412L3268.127-24.1a186.354,186.354,0,0,0-30.6-9.363Z" transform="translate(-2767.979 1181.729) rotate(-17)" fill="#e52e2e" />
        <path
                d="M3197.764-79c3.27,0,6.541.073,9.775.2l-1.763,41.31c-2.659-.126-5.318-.18-8.014-.18a191.692,191.692,0,0,0-23.97,1.508l-5.245-41A233.972,233.972,0,0,1,3197.764-79Z"
                transform="translate(-2767.979 1181.729) rotate(-17)"
                fill="#e52e2e"
        />
        <path d="M3130.4-68.979l12.109,39.532A183.987,183.987,0,0,0,3112.823-17.5c0-.018-.018,0-.018,0l-18.614-36.927h.018A230.043,230.043,0,0,1,3130.4-68.979Z" transform="translate(-2767.979 1181.729) rotate(-17)" fill="#e52e2e" />
        <path d="M3060.984-33.943l24.58,33.226a193.342,193.342,0,0,0-24.025,21.148l-29.827-28.59A232.106,232.106,0,0,1,3060.984-33.943Z" transform="translate(-2767.979 1181.729) rotate(-17)" fill="#e52e2e" />
        <path d="M3007.183,22.189l34.248,23.128a186.766,186.766,0,0,0-15.634,27.94h-.018l-37.644-17.018v-.018A228.888,228.888,0,0,1,3007.183,22.189Z" transform="translate(-2767.979 1181.729) rotate(-17)" fill="#e52e2e" />
        <path d="M2975.124,93.021l40.016,10.423A186.378,186.378,0,0,0,3009.766,135l-41.185-3.506A228.18,228.18,0,0,1,2975.124,93.021Z" transform="translate(-2767.979 1181.729) rotate(-17)" fill="#e52e2e" />
        <path d="M3009.766,135l187.988,16-187.99,16q-.673-7.923-.682-16.01T3009.766,135Z" transform="translate(-2767.979 1181.729) rotate(-17)" fill="#00b233" />
        <path d="M3197.754,151,3025.79,228.723h-.018a185.957,185.957,0,0,1-10.636-30.188Z" transform="translate(-2767.979 1181.729) rotate(-17)" fill="#e52e2e" />
        <path d="M3197.754,151,3061.527,281.553a191.474,191.474,0,0,1-20.106-24.888Z" transform="translate(-2767.979 1181.729) rotate(-17)" fill="#e52e2e" />
        <path d="M3197.754,151l-84.964,168.49a186.015,186.015,0,0,1-27.239-16.784Z" transform="translate(-2767.979 1181.729) rotate(-17)" fill="#e52e2e" />
        <path d="M3197.754,151l-23.978,187.162a187.716,187.716,0,0,1-31.3-6.722Z" transform="translate(-2767.979 1181.729) rotate(-17)" fill="#e52e2e" />
        <path d="M3197.754,151l39.739,184.469a186.411,186.411,0,0,1-31.751,4.024Z" transform="translate(-2767.979 1181.729) rotate(-17)" fill="#e52e2e" />
        <path d="M3197.754,151l98.929,160.681a186.724,186.724,0,0,1-28.571,14.428Z" transform="translate(-2767.979 1181.729) rotate(-17)" fill="#e52e2e" />
        <path d="M3197.754,151l146.782,118.547a188.191,188.191,0,0,1-22.139,23.089Z" transform="translate(-2767.979 1181.729) rotate(-17)" fill="#e52e2e" />
        <path d="M3197.754,151l177.924,62.881a186.346,186.346,0,0,1-13.19,29.163Z" transform="translate(-2767.979 1181.729) rotate(-17)" fill="#e52e2e" />
        <path d="M3197.754,151l188.672.009a188.471,188.471,0,0,1-2.7,31.894Z" transform="translate(-2767.979 1181.729) rotate(-17)" fill="#e52e2e" />
        <path d="M3375.683,88.151a183.549,183.549,0,0,1,8.049,30.978L3197.754,151Z" transform="translate(-2767.979 1181.729) rotate(-17)" fill="#e52e2e" />
        <path d="M3344.564,32.482A187.47,187.47,0,0,1,3362.5,58.987L3197.754,151Z" transform="translate(-2767.979 1181.729) rotate(-17)" fill="#e52e2e" />
        <path d="M3296.7-9.675a185.477,185.477,0,0,1,25.712,19.048L3197.754,151Z" transform="translate(-2767.979 1181.729) rotate(-17)" fill="#e52e2e" />
        <path d="M3237.527-33.468a186.354,186.354,0,0,1,30.6,9.363L3197.754,151Z" transform="translate(-2767.979 1181.729) rotate(-17)" fill="#e52e2e" />
        <path d="M3197.762-37.674c2.7,0,5.355.054,8.014.18L3197.754,151,3173.792-36.166A191.692,191.692,0,0,1,3197.762-37.674Z" transform="translate(-2767.979 1181.729) rotate(-17)" fill="#e52e2e" />
        <path d="M3142.508-29.447,3197.754,151,3112.8-17.5A185.846,185.846,0,0,1,3142.508-29.447Z" transform="translate(-2767.979 1181.729) rotate(-17)" fill="#e52e2e" />
        <path d="M3085.564-.717,3197.754,151,3061.539,20.431A193.272,193.272,0,0,1,3085.564-.717Z" transform="translate(-2767.979 1181.729) rotate(-17)" fill="#e52e2e" />
        <path d="M3041.431,45.317,3197.754,151l-171.975-77.74A188.566,188.566,0,0,1,3041.431,45.317Z" transform="translate(-2767.979 1181.729) rotate(-17)" fill="#e52e2e" />
        <path d="M3015.14,103.444,3197.754,151l-187.988-16A186.378,186.378,0,0,1,3015.14,103.444Z" transform="translate(-2767.979 1181.729) rotate(-17)" fill="#e52e2e" />
        <path d="M3197.754,151l-182.618,47.538a186.3,186.3,0,0,1-5.372-31.553Z" transform="translate(-2767.979 1181.729) rotate(-17)" fill="#009bd4" />
        <path d="M3197.754,151,3041.421,256.665a188.711,188.711,0,0,1-15.649-27.942Z" transform="translate(-2767.979 1181.729) rotate(-17)" fill="#009bd4" />
        <path d="M3197.754,151,3085.551,302.7a193.5,193.5,0,0,1-24.024-21.15Z" transform="translate(-2767.979 1181.729) rotate(-17)" fill="#009bd4" />
        <path d="M3197.754,151l-55.28,180.44a185.647,185.647,0,0,1-29.684-11.95Z" transform="translate(-2767.979 1181.729) rotate(-17)" fill="#009bd4" />
        <path d="M3197.754,151l7.988,188.493c-2.642.126-5.319.179-8,.179a191.883,191.883,0,0,1-23.97-1.51Z" transform="translate(-2767.979 1181.729) rotate(-17)" fill="#009bd4" />
        <path d="M3197.754,151l70.358,175.109a184.738,184.738,0,0,1-30.619,9.361Z" transform="translate(-2767.979 1181.729) rotate(-17)" fill="#009bd4" />
        <path d="M3197.754,151,3322.4,292.633a185.468,185.468,0,0,1-25.714,19.045Z" transform="translate(-2767.979 1181.729) rotate(-17)" fill="#009bd4" />
        <path d="M3197.754,151l164.734,92.044a188.33,188.33,0,0,1-17.935,26.485Z" transform="translate(-2767.979 1181.729) rotate(-17)" fill="#009bd4" />
        <path d="M3197.754,151l185.975,31.9a184.068,184.068,0,0,1-8.051,30.978Z" transform="translate(-2767.979 1181.729) rotate(-17)" fill="#009bd4" />
        <path d="M3383.732,119.111a188.584,188.584,0,0,1,2.694,31.895L3197.754,151Z" transform="translate(-2767.979 1181.729) rotate(-17)" fill="#009bd4" />
        <path d="M3362.5,58.987a183.75,183.75,0,0,1,13.187,29.146L3197.754,151Z" transform="translate(-2767.979 1181.729) rotate(-17)" fill="#009bd4" />
        <path d="M3322.409,9.374a189.615,189.615,0,0,1,22.155,23.108L3197.754,151Z" transform="translate(-2767.979 1181.729) rotate(-17)" fill="#009bd4" />
        <path d="M3268.127-24.1a186.758,186.758,0,0,1,28.57,14.43L3197.754,151Z" transform="translate(-2767.979 1181.729) rotate(-17)" fill="#009bd4" />
        <path d="M3205.776-37.494a187.9,187.9,0,0,1,31.733,4.026L3197.754,151Z" transform="translate(-2767.979 1181.729) rotate(-17)" fill="#009bd4" />
        <path d="M3173.792-36.166,3197.754,151,3142.508-29.447A187.624,187.624,0,0,1,3173.792-36.166Z" transform="translate(-2767.979 1181.729) rotate(-17)" fill="#009bd4" />
        <path d="M3112.823-17.5,3197.754,151,3085.564-.717A186.128,186.128,0,0,1,3112.823-17.5Z" transform="translate(-2767.979 1181.729) rotate(-17)" fill="#009bd4" />
        <path d="M3061.539,20.431,3197.754,151,3041.431,45.316A190.156,190.156,0,0,1,3061.539,20.431Z" transform="translate(-2767.979 1181.729) rotate(-17)" fill="#009bd4" />
        <path d="M3025.779,73.257h.018L3197.754,151,3015.14,103.444A185.956,185.956,0,0,1,3025.779,73.257Z" transform="translate(-2767.979 1181.729) rotate(-17)" fill="#009bd4" />
        <path
                d="M-9878.751-555.02a6.228,6.228,0,0,1-4.351-1.671,5.374,5.374,0,0,1-1.428-4.2,4.37,4.37,0,0,1,.939-2.479,5.082,5.082,0,0,1,2.362-1.722,4.907,4.907,0,0,1-2.464-1.826,4.784,4.784,0,0,1-.774-2.973,5.433,5.433,0,0,1,1.919-4.178,6.569,6.569,0,0,1,4.613-1.388,6.743,6.743,0,0,1,4.5,1.7,4.939,4.939,0,0,1,1.593,3.515c.008.185.008.37,0,.56l-2.54-.1a3.262,3.262,0,0,0-.924-2.555,3.908,3.908,0,0,0-2.707-1.053,3.817,3.817,0,0,0-2.839.846,3.683,3.683,0,0,0-1.084,2.7,3.353,3.353,0,0,0,.96,2.707,4.633,4.633,0,0,0,3.034,1.079l1.9.081-.083,2.061-1.9-.078a4.2,4.2,0,0,0-2.852.828,3.146,3.146,0,0,0-1.124,2.433q-.145,3.5,3.34,3.636a3.63,3.63,0,0,0,2.654-.828,3.283,3.283,0,0,0,1.078-2.441l2.527.1a5.084,5.084,0,0,1-1.887,3.857,6.2,6.2,0,0,1-4.107,1.395Q-9878.574-555.013-9878.751-555.02Zm13.7-2.054a9.647,9.647,0,0,1-1.949-5.943l-.033-.742q-.236-5.8,1.944-8.572t6.814-3.023l.491-.023.089,2.145-.534.025a6.968,6.968,0,0,0-4.74,1.826,7,7,0,0,0-1.623,5.059,6.169,6.169,0,0,1,1.828-1.6,5.128,5.128,0,0,1,2.388-.671,5.281,5.281,0,0,1,3.033.722,5.484,5.484,0,0,1,2.074,2.3,8.15,8.15,0,0,1,.836,3.365c0,.094.008.19.008.284a8.152,8.152,0,0,1-.616,3.34,5.567,5.567,0,0,1-2.051,2.532,6.113,6.113,0,0,1-3.216.982c-.108,0-.217.007-.323.007A5.5,5.5,0,0,1-9865.055-557.074Zm4.351-9.41a3.907,3.907,0,0,0-2.307.876,4.591,4.591,0,0,0-1.486,1.993l.04,1.008a6.96,6.96,0,0,0,1.251,4,3.221,3.221,0,0,0,2.793,1.443,3.241,3.241,0,0,0,2.626-1.388,5.3,5.3,0,0,0,.871-3.411,5.485,5.485,0,0,0-1.116-3.312,3.078,3.078,0,0,0-2.507-1.214C-9860.594-566.487-9860.648-566.486-9860.7-566.483Zm-35.471,10.081a5.48,5.48,0,0,1-4.454-2.6q-1.261-2.226-.8-6.49l.391-3.259q.527-4.414,2.289-6.376a5.4,5.4,0,0,1,4.966-1.583,5.431,5.431,0,0,1,4.434,2.656,8.455,8.455,0,0,1,.927,3.776,17.629,17.629,0,0,1-.1,2.679l-.4,3.353q-.52,4.357-2.281,6.3a5.082,5.082,0,0,1-3.953,1.616A8.623,8.623,0,0,1-9896.175-556.4Zm-.783-17.153a9.033,9.033,0,0,0-1.483,4.424l-.491,4.112a15.643,15.643,0,0,0-.122,2.509,6.119,6.119,0,0,0,.461,2.249,3.1,3.1,0,0,0,2.664,1.8,3.067,3.067,0,0,0,2.985-1.117,9.049,9.049,0,0,0,1.438-4.358l.481-4.019a9.374,9.374,0,0,0-.367-4.842,3.089,3.089,0,0,0-2.631-1.864,4.377,4.377,0,0,0-.514-.031A2.964,2.964,0,0,0-9896.958-573.556Zm48.993,16.2a4.961,4.961,0,0,1-2.061-3.656q-.35-2.917,2.889-7.394l4.606-6.376-9.919,1.188-.248-2.051,12.952-1.55.216,1.808-5.936,8.42a16.654,16.654,0,0,0-1.763,3.056,4.673,4.673,0,0,0-.307,2.3,3.566,3.566,0,0,0,1.238,2.428,3.3,3.3,0,0,0,2.616.691,3.9,3.9,0,0,0,2.785-1.413,4.115,4.115,0,0,0,.684-3.089l2.512-.3c.033.279.051.552.056.815a5.682,5.682,0,0,1-1.286,3.808,6.578,6.578,0,0,1-4.5,2.244,9.356,9.356,0,0,1-1.1.068A5.781,5.781,0,0,1-9847.965-557.357Zm19.69-2.884a5.135,5.135,0,0,1-2.415-3.568,4.619,4.619,0,0,1,.215-2.76,5.381,5.381,0,0,1,1.7-2.218,5.672,5.672,0,0,1-2.818-1.4,4.893,4.893,0,0,1-1.5-2.656,5.191,5.191,0,0,1,.846-4.388,6.7,6.7,0,0,1,4.168-2.454,6.672,6.672,0,0,1,4.818.544,5.232,5.232,0,0,1,2.55,3.659,5.043,5.043,0,0,1-.258,3.029,5.464,5.464,0,0,1-1.976,2.436,5.247,5.247,0,0,1,2.426,1.345,4.7,4.7,0,0,1,1.3,2.421,6.782,6.782,0,0,1,.151,1.428,4.808,4.808,0,0,1-.9,2.813,6.068,6.068,0,0,1-3.852,2.33,7.806,7.806,0,0,1-1.624.181A5.519,5.519,0,0,1-9828.274-560.241Zm2.6-8.146a3.23,3.23,0,0,0-2.178,1.421,3.121,3.121,0,0,0-.476,1.664,4.255,4.255,0,0,0,.1.927,3.375,3.375,0,0,0,1.44,2.223,3.225,3.225,0,0,0,2.537.441,3.272,3.272,0,0,0,2.168-1.41,3.372,3.372,0,0,0,.38-2.644,3.389,3.389,0,0,0-1.4-2.211,2.994,2.994,0,0,0-1.706-.506A4.175,4.175,0,0,0-9825.671-568.388Zm-1.978-9.281a3.844,3.844,0,0,0-2.522,1.537,3.2,3.2,0,0,0-.542,1.805,4.609,4.609,0,0,0,.109,1.005,3.671,3.671,0,0,0,1.6,2.444,3.758,3.758,0,0,0,2.925.451,3.693,3.693,0,0,0,2.467-1.588,3.724,3.724,0,0,0,.44-2.892,3.551,3.551,0,0,0-1.542-2.4,3.373,3.373,0,0,0-1.826-.492A5.368,5.368,0,0,0-9827.648-577.668Zm-90.6,17.482a6.233,6.233,0,0,1-3.98-2.426,5.368,5.368,0,0,1-.646-4.393,4.371,4.371,0,0,1,1.375-2.271,5.091,5.091,0,0,1,2.633-1.269,4.886,4.886,0,0,1-2.094-2.238,4.8,4.8,0,0,1-.226-3.064,5.422,5.422,0,0,1,2.646-3.758,6.535,6.535,0,0,1,4.786-.532,6.718,6.718,0,0,1,4.112,2.484,4.848,4.848,0,0,1,.979,2.677,5.875,5.875,0,0,1-.149,1.618l-2.479-.56a3.257,3.257,0,0,0-.446-2.679,3.9,3.9,0,0,0-2.474-1.527,3.833,3.833,0,0,0-2.942.314,3.7,3.7,0,0,0-1.555,2.469,3.358,3.358,0,0,0,.453,2.836,4.65,4.65,0,0,0,2.788,1.61l1.854.42-.456,2.011-1.854-.418a4.188,4.188,0,0,0-2.955.3,3.166,3.166,0,0,0-1.547,2.188q-.768,3.415,2.631,4.183a3.625,3.625,0,0,0,2.76-.337,3.279,3.279,0,0,0,1.5-2.206l2.466.56a5.064,5.064,0,0,1-2.552,3.451,5.9,5.9,0,0,1-2.937.758A7.607,7.607,0,0,1-9918.246-560.186Zm106.581-3.915a4.965,4.965,0,0,1-2.651-3.259q-.835-2.815,1.6-7.776l3.464-7.062-9.579,2.849-.59-1.983,12.5-3.71.517,1.742-4.424,9.3a16.423,16.423,0,0,0-1.223,3.307,4.691,4.691,0,0,0,.086,2.322,3.553,3.553,0,0,0,1.633,2.18,3.294,3.294,0,0,0,2.694.243,3.9,3.9,0,0,0,2.5-1.866,4.1,4.1,0,0,0,.154-3.16l2.421-.722a7.006,7.006,0,0,1,.309,2.043,5.52,5.52,0,0,1-.736,2.722,6.571,6.571,0,0,1-4.062,2.973,8.065,8.065,0,0,1-2.293.363A5.309,5.309,0,0,1-9811.665-564.1Zm-125.413-1.388,5.934-19.1,2.428.757-5,16.1,5.427-.276-.682,2.193-7.728.451Zm142.358-4.234.76-20.222,2.461-.99-.978,19.6,10-4.016.777,1.93-12.483,5.016Zm-156.807-.8a6.224,6.224,0,0,1-3.54-3.031,5.368,5.368,0,0,1,.058-4.439,4.384,4.384,0,0,1,1.717-2.021,5.086,5.086,0,0,1,2.8-.833,4.895,4.895,0,0,1-1.712-2.545,4.8,4.8,0,0,1,.269-3.061,5.421,5.421,0,0,1,3.208-3.292,6.561,6.561,0,0,1,4.812.238,6.723,6.723,0,0,1,3.664,3.11,4.963,4.963,0,0,1,.549,1.856,5.423,5.423,0,0,1-.412,2.514l-2.36-.947a3.257,3.257,0,0,0-.013-2.717,3.9,3.9,0,0,0-2.2-1.9,3.832,3.832,0,0,0-2.957-.16,3.7,3.7,0,0,0-1.925,2.19,3.336,3.336,0,0,0,0,2.872,4.642,4.642,0,0,0,2.494,2.033l1.765.709-.77,1.914-1.763-.706a4.153,4.153,0,0,0-2.965-.175,3.153,3.153,0,0,0-1.874,1.914q-1.3,3.248,1.93,4.548a3.652,3.652,0,0,0,2.78.106,3.283,3.283,0,0,0,1.831-1.94l2.348.945a5.079,5.079,0,0,1-3.072,3,5.754,5.754,0,0,1-2.02.364A7.061,7.061,0,0,1-9951.526-570.52Zm-15.88-7.1a6.307,6.307,0,0,1-3.284-3.256,4.957,4.957,0,0,1,.278-4.188q1.3-2.636,6.465-4.609l7.346-2.811-8.951-4.441.917-1.849,11.684,5.8-.806,1.631-9.579,3.8a16.3,16.3,0,0,0-3.146,1.59A4.7,4.7,0,0,0-9968-584.2a3.583,3.583,0,0,0-.294,2.709,3.312,3.312,0,0,0,1.811,2.013,3.915,3.915,0,0,0,3.106.339,4.107,4.107,0,0,0,2.265-2.211l2.264,1.127a5.855,5.855,0,0,1-3.558,3.191,5.71,5.71,0,0,1-1.715.262A7.407,7.407,0,0,1-9967.406-577.617Zm190.7.557a4.973,4.973,0,0,1-3.171-2.753q-1.3-2.632.248-7.936l2.2-7.551-8.951,4.444-.917-1.849,11.684-5.8.809,1.631-2.771,9.921a16.363,16.363,0,0,0-.639,3.469,4.717,4.717,0,0,0,.481,2.271,3.562,3.562,0,0,0,1.978,1.871,3.3,3.3,0,0,0,2.7-.225,3.906,3.906,0,0,0,2.152-2.264,4.1,4.1,0,0,0-.393-3.14l2.267-1.124a6.336,6.336,0,0,1,.722,3.031,5.611,5.611,0,0,1-.334,1.735,6.56,6.56,0,0,1-3.489,3.626,7.187,7.187,0,0,1-3.184.835A5.085,5.085,0,0,1-9776.705-577.06Zm18.176-10.769.4-.246a6.653,6.653,0,0,0,3.074-3.965,7.287,7.287,0,0,0-.79-5.12,5.427,5.427,0,0,1-2.7,3.8,5.172,5.172,0,0,1-4.492.628,7.057,7.057,0,0,1-3.812-3.206,7.032,7.032,0,0,1-1.169-5.064,5.767,5.767,0,0,1,2.846-3.935,5.678,5.678,0,0,1,5.095-.575,8.7,8.7,0,0,1,4.489,3.867l.51.826q2.659,4.288,2.486,7.759c-.01.21-.028.415-.053.62q-.464,3.7-4.366,6.2l-.385.235Zm-5.546-15.333a3.212,3.212,0,0,0-1.618,2.482c-.01.078-.015.157-.02.233a5.38,5.38,0,0,0,.924,3.084,5.227,5.227,0,0,0,2.588,2.3,3.18,3.18,0,0,0,2.9-.314,4.023,4.023,0,0,0,1.623-1.919,4.088,4.088,0,0,0,.262-2.464l-.492-.79a6.531,6.531,0,0,0-3.028-2.785,3.952,3.952,0,0,0-1.475-.309A3.108,3.108,0,0,0-9764.075-603.162Zm-221.274,15.581a6.251,6.251,0,0,1-2.973-3.593,5.377,5.377,0,0,1,.823-4.363,4.344,4.344,0,0,1,2.038-1.7,5.078,5.078,0,0,1,2.9-.342,4.9,4.9,0,0,1-1.251-2.8,4.767,4.767,0,0,1,.788-2.968,5.442,5.442,0,0,1,3.725-2.7,6.558,6.558,0,0,1,4.7,1.061,6.733,6.733,0,0,1,3.076,3.692,5.256,5.256,0,0,1,.213,1.01,5.141,5.141,0,0,1-.828,3.32l-2.16-1.34a3.266,3.266,0,0,0,.453-2.677,3.909,3.909,0,0,0-1.841-2.251,3.824,3.824,0,0,0-2.889-.661,3.683,3.683,0,0,0-2.27,1.826,3.354,3.354,0,0,0-.5,2.828,4.663,4.663,0,0,0,2.112,2.433l1.615,1-1.086,1.755-1.615-1a4.182,4.182,0,0,0-2.893-.681,3.137,3.137,0,0,0-2.172,1.565q-1.843,2.978,1.121,4.809a3.624,3.624,0,0,0,2.72.585,3.278,3.278,0,0,0,2.135-1.6l2.152,1.332a5.084,5.084,0,0,1-3.54,2.431,5.824,5.824,0,0,1-1.062.1A6.6,6.6,0,0,1-9985.35-587.582Zm-14.274-9.6a6.228,6.228,0,0,1-2.682-3.811,5.389,5.389,0,0,1,1.157-4.287,4.39,4.39,0,0,1,2.165-1.535,5.132,5.132,0,0,1,2.923-.114,4.883,4.883,0,0,1-1.028-2.887,4.791,4.791,0,0,1,1.016-2.9,5.43,5.43,0,0,1,3.922-2.4,6.555,6.555,0,0,1,4.6,1.423,6.712,6.712,0,0,1,2.78,3.92,5.429,5.429,0,0,1,.109.636,5.092,5.092,0,0,1-1.059,3.631l-2.051-1.5a3.254,3.254,0,0,0,.661-2.636,3.905,3.905,0,0,0-1.661-2.385,3.843,3.843,0,0,0-2.826-.884,3.7,3.7,0,0,0-2.408,1.643,3.357,3.357,0,0,0-.717,2.78,4.654,4.654,0,0,0,1.92,2.59l1.529,1.122-1.216,1.666-1.534-1.122a4.172,4.172,0,0,0-2.831-.9,3.145,3.145,0,0,0-2.289,1.388q-2.067,2.826.744,4.885a3.619,3.619,0,0,0,2.666.79,3.266,3.266,0,0,0,2.254-1.423l2.041,1.5a5.089,5.089,0,0,1-3.715,2.147,5.9,5.9,0,0,1-.616.032A6.452,6.452,0,0,1-9999.624-597.181Zm255.45,1.185a4.974,4.974,0,0,1-3.594-2.17q-1.739-2.37-1.119-7.86l.881-7.817-8.06,5.908-1.221-1.664,10.517-7.713,1.076,1.469-1.028,10.248a16.439,16.439,0,0,0-.035,3.525,4.68,4.68,0,0,0,.863,2.157,3.564,3.564,0,0,0,2.271,1.5,3.3,3.3,0,0,0,2.618-.684,3.915,3.915,0,0,0,1.729-2.6,4.1,4.1,0,0,0-.922-3.029l2.041-1.5a6.013,6.013,0,0,1,1.279,3.907,5.583,5.583,0,0,1-.081.724,6.547,6.547,0,0,1-2.816,4.168,6.572,6.572,0,0,1-3.887,1.447A5.047,5.047,0,0,1-9744.174-596Zm13.521-11.76,6.039-5.328-3.14-4.467a6.422,6.422,0,0,1-1.922,2.844,5.5,5.5,0,0,1-4.429,1.509,7.07,7.07,0,0,1-4.416-2.585,6.824,6.824,0,0,1-1.96-4.735,6.061,6.061,0,0,1,2.31-4.4,6.309,6.309,0,0,1,4.2-1.752,5.83,5.83,0,0,1,4.1,1.78l-1.792,1.58a4.031,4.031,0,0,0-2.619-1.127,3.788,3.788,0,0,0-2.521,1.069,3.406,3.406,0,0,0-1.281,2.732,5.016,5.016,0,0,0,1.443,3.155,4.6,4.6,0,0,0,2.938,1.686,3.709,3.709,0,0,0,2.97-1.005,4.206,4.206,0,0,0,1.469-2.261l.14-.853,1.861-.95,5.806,8.116-7.649,6.746Zm-284.817-2.157a6.206,6.206,0,0,1-2.32-4.039,5.392,5.392,0,0,1,1.545-4.166,4.363,4.363,0,0,1,2.3-1.327,5.066,5.066,0,0,1,2.92.154,4.894,4.894,0,0,1-.76-2.973,4.781,4.781,0,0,1,1.276-2.8,5.437,5.437,0,0,1,4.127-2.026,6.556,6.556,0,0,1,4.454,1.838,6.748,6.748,0,0,1,2.411,4.155.169.169,0,0,0,0,.038,5.047,5.047,0,0,1-1.342,4.128l-1.907-1.681a3.248,3.248,0,0,0,.9-2.568,3.875,3.875,0,0,0-1.434-2.522,3.818,3.818,0,0,0-2.731-1.142,3.691,3.691,0,0,0-2.548,1.415,3.355,3.355,0,0,0-.97,2.7,4.64,4.64,0,0,0,1.674,2.753l1.423,1.261-1.367,1.547-1.426-1.258a4.185,4.185,0,0,0-2.732-1.162,3.161,3.161,0,0,0-2.408,1.175q-2.316,2.625.294,4.933a3.625,3.625,0,0,0,2.583,1.033,3.275,3.275,0,0,0,2.375-1.213l1.895,1.676a5.069,5.069,0,0,1-3.9,1.8h-.079A6.309,6.309,0,0,1-10015.47-609.913Zm295.658-11.289q-2.112-2.047-2.413-7.564l-.441-7.855-6.958,7.171-1.481-1.436,9.083-9.362,1.3,1.269.7,10.276a16.409,16.409,0,0,0,.554,3.482,4.733,4.733,0,0,0,1.213,1.983,3.569,3.569,0,0,0,2.489,1.1,3.3,3.3,0,0,0,2.469-1.112,3.891,3.891,0,0,0,1.271-2.851,4.093,4.093,0,0,0-1.415-2.831l1.762-1.816a5.867,5.867,0,0,1,1.955,4.366c0,.124,0,.248-.013.372a6.722,6.722,0,0,1-2.068,4.208,6.314,6.314,0,0,1-4.1,2.135q-.168.011-.334.011A5.015,5.015,0,0,1-9719.812-621.2Zm-311.212-4.186,9.5-9.192-1.922-1.985,1.484-1.436,1.922,1.983,3.319-3.213,1.771,1.828-3.322,3.213,6.3,6.513-1.073,1.038-16.11,3.186Zm4.257-.58.6-.16,10.719-2.175-4.308-4.449Zm315.306-16.262-1.727,2.155-1.613-1.294,1.729-2.155-3.6-2.892,1.593-1.983,3.6,2.892,5.675-7.067,1.16.932,5.181,15.586-1.689,2.1Zm1.593-1.983,7.612,6.113-.238-.58-3.5-10.362Zm-327.306,9.939a6.316,6.316,0,0,1-3.978-2.441,6.233,6.233,0,0,1-1.611-4.376,5.389,5.389,0,0,1,2.221-3.844,4.409,4.409,0,0,1,2.487-.924,5.1,5.1,0,0,1,2.851.641,4.895,4.895,0,0,1-.248-3.054,4.771,4.771,0,0,1,1.728-2.542,5.422,5.422,0,0,1,4.408-1.3,6.547,6.547,0,0,1,4.079,2.555,7.214,7.214,0,0,1,1.621,3.439,5.954,5.954,0,0,1,.061,1.064,5.032,5.032,0,0,1-2.016,3.884l-1.6-1.98a3.255,3.255,0,0,0,1.314-2.378,3.9,3.9,0,0,0-.988-2.732,3.849,3.849,0,0,0-2.5-1.583,3.709,3.709,0,0,0-2.75.97,3.344,3.344,0,0,0-1.405,2.5,4.65,4.65,0,0,0,1.183,3l1.2,1.479-1.608,1.3-1.192-1.479a4.16,4.16,0,0,0-2.5-1.6,3.157,3.157,0,0,0-2.57.755q-2.723,2.2-.537,4.91a3.632,3.632,0,0,0,2.373,1.451,3.29,3.29,0,0,0,2.548-.8l1.585,1.968a5.071,5.071,0,0,1-3.256,1.194A5.687,5.687,0,0,1-10037.174-634.273Zm-17.67-21.7,1.93-1.319,4.548,6.647,4.821-2.57a6.4,6.4,0,0,1-2.588-2.254,5.486,5.486,0,0,1-.954-4.581,7.044,7.044,0,0,1,3.106-4.067,6.809,6.809,0,0,1,4.938-1.365,6.053,6.053,0,0,1,4.082,2.831,6.942,6.942,0,0,1,1.2,2.882,5.626,5.626,0,0,1,.021,1.5,5.817,5.817,0,0,1-2.267,3.851l-1.35-1.973a4.016,4.016,0,0,0,1.438-2.459,3.784,3.784,0,0,0-.75-2.636,3.429,3.429,0,0,0-2.555-1.605,5.037,5.037,0,0,0-3.31,1.048,4.608,4.608,0,0,0-2.033,2.707,3.693,3.693,0,0,0,.636,3.069,4.141,4.141,0,0,0,2.063,1.735l.83.243.712,1.965-8.762,4.771Zm359.2,6.766q-2.427-1.656-3.674-7.04l-1.775-7.662-5.629,8.26-1.707-1.165,7.347-10.777,1.5,1.026,2.443,10.007a16.53,16.53,0,0,0,1.145,3.335,4.77,4.77,0,0,0,1.529,1.747,3.592,3.592,0,0,0,2.644.661,3.321,3.321,0,0,0,2.244-1.519,3.923,3.923,0,0,0,.765-3.029,4.1,4.1,0,0,0-1.879-2.545l1.423-2.092a5.89,5.89,0,0,1,2.677,3.968,5.728,5.728,0,0,1,.053,1.456,7.257,7.257,0,0,1-1.321,3.413,6.3,6.3,0,0,1-3.675,2.8,4.8,4.8,0,0,1-1.151.143A5.2,5.2,0,0,1-9695.64-649.211Zm-363.01-15.51a6.282,6.282,0,0,1-3.5-3.082,6.219,6.219,0,0,1-.844-4.583,5.377,5.377,0,0,1,2.847-3.411,4.326,4.326,0,0,1,2.607-.484,5.045,5.045,0,0,1,2.7,1.117,4.886,4.886,0,0,1,.276-3.054,4.787,4.787,0,0,1,2.135-2.211,5.43,5.43,0,0,1,4.565-.532,6.558,6.558,0,0,1,3.586,3.216,7.975,7.975,0,0,1,.919,2.5,5.917,5.917,0,0,1-.03,2.226,5.03,5.03,0,0,1-2.651,3.479l-1.235-2.221a3.246,3.246,0,0,0,1.7-2.119,3.875,3.875,0,0,0-.509-2.859,3.809,3.809,0,0,0-2.2-1.985,3.67,3.67,0,0,0-2.871.484,3.351,3.351,0,0,0-1.815,2.226,4.667,4.667,0,0,0,.658,3.155l.924,1.661-1.806,1-.924-1.659a4.173,4.173,0,0,0-2.19-2.005,3.162,3.162,0,0,0-2.661.306q-3.062,1.7-1.367,4.745a3.606,3.606,0,0,0,2.089,1.833,3.273,3.273,0,0,0,2.644-.347l1.229,2.208a5.194,5.194,0,0,1-2.551.7A5.336,5.336,0,0,1-10058.649-664.72Zm373.514-1.074a4.347,4.347,0,0,1-1.79-1.957,5.08,5.08,0,0,1-.479-2.887,4.909,4.909,0,0,1-2.737,1.383,4.779,4.779,0,0,1-3.006-.646,5.429,5.429,0,0,1-2.866-3.6,6.546,6.546,0,0,1,.838-4.743,6.71,6.71,0,0,1,3.54-3.246,5.03,5.03,0,0,1,4.355.408l-1.238,2.223a3.251,3.251,0,0,0-2.694-.327,3.9,3.9,0,0,0-2.16,1.947,3.837,3.837,0,0,0-.526,2.915,3.71,3.71,0,0,0,1.932,2.183,3.354,3.354,0,0,0,2.849.362,4.639,4.639,0,0,0,2.33-2.226l.924-1.661,1.806,1-.922,1.661a4.157,4.157,0,0,0-.544,2.922,3.154,3.154,0,0,0,1.666,2.1q3.062,1.7,4.75-1.347a3.622,3.622,0,0,0,.453-2.745,3.267,3.267,0,0,0-1.693-2.059l1.228-2.211a5.062,5.062,0,0,1,2.6,3.421,5.718,5.718,0,0,1,.116,1.978,7.014,7.014,0,0,1-.881,2.623,6.22,6.22,0,0,1-3.446,3.135,4.685,4.685,0,0,1-1.463.234A6.041,6.041,0,0,1-9685.136-665.794Zm8.159-14.472q-2.675-1.219-4.814-6.318l-3.043-7.252-4.15,9.091-1.879-.856,5.416-11.863,1.653.755,4.105,9.445a16.048,16.048,0,0,0,1.688,3.1,4.675,4.675,0,0,0,1.806,1.461,3.573,3.573,0,0,0,2.717.205,3.312,3.312,0,0,0,1.955-1.871,3.908,3.908,0,0,0,.24-3.115,4.1,4.1,0,0,0-2.284-2.193l1.054-2.3a5.873,5.873,0,0,1,3.3,3.456,5.848,5.848,0,0,1,.278,2.6,7.981,7.981,0,0,1-.706,2.418,6.3,6.3,0,0,1-3.146,3.388,4.71,4.71,0,0,1-1.887.4A5.545,5.545,0,0,1-9676.977-680.266Zm-388.578-1.1q-3.617-.927-5.6-5.118l-.189-.408,1.952-.891.192.423a6.668,6.668,0,0,0,3.545,3.553,7.29,7.29,0,0,0,5.181-.142,5.4,5.4,0,0,1-3.423-3.155,5.159,5.159,0,0,1-.056-4.535,7.064,7.064,0,0,1,3.659-3.375,7.04,7.04,0,0,1,5.173-.522,5.755,5.755,0,0,1,3.543,3.32,6.494,6.494,0,0,1,.5,1.572,5.66,5.66,0,0,1-.567,3.555,8.7,8.7,0,0,1-4.4,3.963l-.887.405a15.7,15.7,0,0,1-6.412,1.622A8.835,8.835,0,0,1-10065.555-681.367Zm6.409-11.425a5.221,5.221,0,0,0-2.6,2.279,3.147,3.147,0,0,0-.339,2.028,3.616,3.616,0,0,0,.281.889,4.019,4.019,0,0,0,1.7,1.854,4.031,4.031,0,0,0,2.405.57l.849-.385a6.532,6.532,0,0,0,3.147-2.654,3.328,3.328,0,0,0,.22-3.135,3.211,3.211,0,0,0-2.261-1.922,4.153,4.153,0,0,0-.967-.112A5.913,5.913,0,0,0-10059.146-692.793Zm390.208-6.044q-2.776-.965-5.388-5.832l-3.723-6.931-3.27,9.445-1.949-.676,4.267-12.324,1.719.593,4.979,9.017a16.527,16.527,0,0,0,1.978,2.92,4.743,4.743,0,0,0,1.935,1.286,3.573,3.573,0,0,0,2.726-.058,3.29,3.29,0,0,0,1.765-2.049,3.91,3.91,0,0,0-.054-3.122,4.1,4.1,0,0,0-2.479-1.967l.825-2.388a5.879,5.879,0,0,1,3.621,3.125,5.965,5.965,0,0,1,.461,3.345,8.47,8.47,0,0,1-.41,1.686,6.315,6.315,0,0,1-2.811,3.672,4.691,4.691,0,0,1-2.3.6A5.793,5.793,0,0,1-9668.937-698.837Zm-407.941-7.761a5.43,5.43,0,0,1-3.426-3.93,5.479,5.479,0,0,1,.59-5.123q1.523-2.051,5.619-3.343l3.14-.955q4.251-1.3,6.759-.474a5.392,5.392,0,0,1,3.448,3.91,5.433,5.433,0,0,1-.646,5.128q-1.572,2.078-5.573,3.355l-3.231.982a15.57,15.57,0,0,1-4.457.776A6.981,6.981,0,0,1-10076.879-706.6Zm7.315-11.132-3.963,1.208a9.285,9.285,0,0,0-4.219,2.228,3.1,3.1,0,0,0-.572,3.16,3.063,3.063,0,0,0,2.224,2.282,9.035,9.035,0,0,0,4.57-.433l3.872-1.18a9.437,9.437,0,0,0,4.284-2.284,3.1,3.1,0,0,0,.644-3.163,3.054,3.054,0,0,0-2.2-2.238,4.9,4.9,0,0,0-1.278-.152A12.449,12.449,0,0,0-10069.563-717.73Zm405.937,2.96q-2.845-.741-5.829-5.389l-4.252-6.617-2.52,9.671-2-.522,3.287-12.623,1.763.461,5.669,8.6a16.728,16.728,0,0,0,2.2,2.755,4.7,4.7,0,0,0,2.033,1.129,3.569,3.569,0,0,0,2.712-.268,3.3,3.3,0,0,0,1.6-2.18,3.9,3.9,0,0,0-.3-3.11,4.092,4.092,0,0,0-2.629-1.768l.638-2.446a5.871,5.871,0,0,1,3.857,2.834,6.146,6.146,0,0,1,.663,3.9,9.058,9.058,0,0,1-.221,1.112,6.313,6.313,0,0,1-2.517,3.882,4.706,4.706,0,0,1-2.63.788A6,6,0,0,1-9663.627-714.77Zm-9.7-23.8.453-2.507,16.589,3-.937-5.351,2.261.405,1.391,7.617-.074.39Zm-414.829-10-.051-.392,19.84-2.54.321,2.522-16.72,2.14,2.5,4.821-2.278.291Zm431.5-.223q-2.925-.277-6.612-4.393l-5.251-5.857-.95,9.949-2.056-.195,1.243-12.988,1.808.175,6.967,7.589a16.407,16.407,0,0,0,2.61,2.368,4.656,4.656,0,0,0,2.183.793,3.558,3.558,0,0,0,2.634-.7,3.28,3.28,0,0,0,1.233-2.408,3.9,3.9,0,0,0-.788-3.021,4.091,4.091,0,0,0-2.874-1.324l.24-2.52a5.881,5.881,0,0,1,4.255,2.188,6.558,6.558,0,0,1,1.238,4.874c-.023.223-.051.438-.084.648a6,6,0,0,1-1.785,3.583,4.818,4.818,0,0,1-3.375,1.267Q-9656.333-748.767-9656.658-748.8Zm-11.418-21.714a5.4,5.4,0,0,1-2.162-4.743,5.445,5.445,0,0,1,2.111-4.72q2.108-1.531,6.308-1.588l3.373,0q4.395,0,6.525,1.512a5.437,5.437,0,0,1,2.135,4.755,8.344,8.344,0,0,1-.124,1.492,4.964,4.964,0,0,1-1.93,3.244q-2.055,1.516-6.351,1.56l-3.279,0h-.044Q-9665.924-769-9668.076-770.511Zm6.2-8.521a9.432,9.432,0,0,0-4.766.937,3.019,3.019,0,0,0-1.474,2.112,4.112,4.112,0,0,0-.063.729,3.065,3.065,0,0,0,1.453,2.78,9.1,9.1,0,0,0,4.568.945l4.143,0a9.248,9.248,0,0,0,4.68-.9,3.112,3.112,0,0,0,1.469-2.861,3.068,3.068,0,0,0-1.466-2.828,9.077,9.077,0,0,0-4.5-.912Zm-409.768,1.945-7.371-7.194a16.174,16.174,0,0,0-2.735-2.226,4.71,4.71,0,0,0-2.223-.671,3.573,3.573,0,0,0-2.593.838,3.306,3.306,0,0,0-1.1,2.474,3.905,3.905,0,0,0,.955,2.973,4.1,4.1,0,0,0,2.942,1.167l-.1,2.527a5.875,5.875,0,0,1-4.367-1.95,6.557,6.557,0,0,1-1.5-4.8,6.321,6.321,0,0,1,1.633-4.328,4.962,4.962,0,0,1,3.938-1.453q2.936.118,6.842,4.026l5.563,5.561.4-9.987,2.062.084-.526,13.033Zm400.561-19.954,1.813-.142,8.177,6.262a16.361,16.361,0,0,0,2.983,1.881,4.679,4.679,0,0,0,2.289.4,3.584,3.584,0,0,0,2.474-1.142,3.31,3.31,0,0,0,.795-2.585,3.907,3.907,0,0,0-1.3-2.841,4.107,4.107,0,0,0-3.06-.805l-.2-2.522a5.881,5.881,0,0,1,4.57,1.413,6.581,6.581,0,0,1,2.063,4.588,8.206,8.206,0,0,1-.086,2.127,5.387,5.387,0,0,1-1.018,2.363,4.968,4.968,0,0,1-3.735,1.917q-2.933.232-7.277-3.18l-6.187-4.857.793,9.962-2.059.165Zm1.393-9.627q-3.031-1.8-3.912-6.346l-.089-.484,2.114-.375.094.524a6.973,6.973,0,0,0,2.446,4.452,7,7,0,0,0,5.234.929,6.088,6.088,0,0,1-1.826-1.6,5.1,5.1,0,0,1-.987-2.274,5.292,5.292,0,0,1,.309-3.1,5.521,5.521,0,0,1,2-2.363,8.149,8.149,0,0,1,3.223-1.281,8.318,8.318,0,0,1,3.672.116,5.563,5.563,0,0,1,2.788,1.692,6.154,6.154,0,0,1,1.405,3.054,6.246,6.246,0,0,1,0,2.337,5.447,5.447,0,0,1-1.362,2.633,9.642,9.642,0,0,1-5.632,2.732l-.727.129a21.78,21.78,0,0,1-3.791.369A9.649,9.649,0,0,1-9669.687-806.669Zm9.177-9.493a5.507,5.507,0,0,0-3.133,1.55,3.18,3.18,0,0,0-.841,1.565,3.325,3.325,0,0,0,0,1.243,3.91,3.91,0,0,0,1.178,2.173,4.577,4.577,0,0,0,2.173,1.2l1-.175a6.992,6.992,0,0,0,3.8-1.773,3.221,3.221,0,0,0,1.056-2.965,3.245,3.245,0,0,0-1.729-2.413,4.617,4.617,0,0,0-2.233-.526A7.18,7.18,0,0,0-9660.51-816.162Zm-411.464,5.47.521-2.487a3.269,3.269,0,0,0,2.674-.489,3.908,3.908,0,0,0,1.486-2.5,3.842,3.842,0,0,0-.364-2.94,3.678,3.678,0,0,0-2.489-1.512,3.342,3.342,0,0,0-2.829.5,4.657,4.657,0,0,0-1.567,2.816l-.39,1.859-2.021-.423.39-1.859a4.165,4.165,0,0,0-.347-2.95,3.147,3.147,0,0,0-2.211-1.512q-3.426-.718-4.14,2.694a3.616,3.616,0,0,0,.38,2.755,3.274,3.274,0,0,0,2.229,1.466l-.52,2.477a5.085,5.085,0,0,1-3.492-2.5,6.312,6.312,0,0,1-.633-4.624,6.234,6.234,0,0,1,2.365-4.016,5.379,5.379,0,0,1,4.381-.717,4.379,4.379,0,0,1,2.291,1.337,5.073,5.073,0,0,1,1.31,2.616,4.894,4.894,0,0,1,2.208-2.13,4.785,4.785,0,0,1,3.059-.276,5.432,5.432,0,0,1,3.8,2.585,6.544,6.544,0,0,1,.605,4.778,6.725,6.725,0,0,1-2.419,4.153,4.875,4.875,0,0,1-3.027,1.033A6.073,6.073,0,0,1-10071.974-810.692Zm395.49-14.887,16.315-4.249-3.1-4.462,2.224-.577,4.459,6.326.1.382-19.356,5.044Zm-2.623-13.309a6.7,6.7,0,0,1-3-3.793,6.664,6.664,0,0,1-.119-4.849,5.222,5.222,0,0,1,3.276-3.023,5.029,5.029,0,0,1,3.036-.162,5.482,5.482,0,0,1,2.685,1.623,5.2,5.2,0,0,1,1-2.585,4.691,4.691,0,0,1,2.221-1.618,5.138,5.138,0,0,1,4.3.157,6.046,6.046,0,0,1,2.836,3.494,6.439,6.439,0,0,1,.332,3.621,5.174,5.174,0,0,1-.273.874,5.146,5.146,0,0,1-3.2,2.884,4.617,4.617,0,0,1-2.76.162,5.316,5.316,0,0,1-2.434-1.38,5.734,5.734,0,0,1-1,2.986,4.9,4.9,0,0,1-2.431,1.846,6.043,6.043,0,0,1-2.065.389A4.9,4.9,0,0,1-9679.106-838.888Zm1.066-9.308a3.544,3.544,0,0,0-2.168,1.854,3.051,3.051,0,0,0-.2.6,4.207,4.207,0,0,0,.237,2.358,3.85,3.85,0,0,0,1.869,2.292,3.525,3.525,0,0,0,2.847.046,3.656,3.656,0,0,0,2.2-1.919,3.765,3.765,0,0,0,.048-2.965,3.7,3.7,0,0,0-1.909-2.223,3.4,3.4,0,0,0-1.444-.318A4.349,4.349,0,0,0-9678.04-848.2Zm8.847-2.709a3.371,3.371,0,0,0-2,1.692,2.8,2.8,0,0,0-.23.661,3.424,3.424,0,0,0,.175,1.94,3.236,3.236,0,0,0,1.706,1.965,3.386,3.386,0,0,0,2.616.015,3.355,3.355,0,0,0,2.008-1.729,3.21,3.21,0,0,0,.086-2.573,3.256,3.256,0,0,0-1.691-1.955,2.962,2.962,0,0,0-1.275-.28A4.132,4.132,0,0,0-9669.193-850.906Zm-395.118,7.536-9.6-13.327.982-2.509,12.312,4.819,1.008-2.57,1.922.752-1.008,2.57,4.3,1.684-.927,2.37-4.3-1.686-3.3,8.442Zm-5.923-11.727,6.435,8.845,2.256-5.768-9.091-3.558Zm382.311-2.55,15.353-6.961-3.808-3.869,2.089-.95,5.472,5.477.162.362-18.219,8.253Zm-10.142-19.47,19.562-1.643-5.312-9.374,1.806-1.023,6.634,11.7-1.235.7-20.146,1.942Zm-349.956.334,1.248-2.041a4.022,4.022,0,0,0,2.834.3,3.777,3.777,0,0,0,2.094-1.765,3.418,3.418,0,0,0,.418-2.991,5.041,5.041,0,0,0-2.314-2.588,4.6,4.6,0,0,0-3.3-.742,3.7,3.7,0,0,0-2.54,1.836,4.157,4.157,0,0,0-.734,2.6l.116.856-1.5,1.456-7.943-6.037,5.314-8.7,1.993,1.218-4.2,6.872,4.32,3.343a6.422,6.422,0,0,1,1-3.284,5.5,5.5,0,0,1,3.788-2.75,7.044,7.044,0,0,1,4.981,1.167,6.791,6.791,0,0,1,3.269,3.943,6.055,6.055,0,0,1-.906,4.885,6.308,6.308,0,0,1-3.492,2.915,5.249,5.249,0,0,1-1.572.241A6.482,6.482,0,0,1-10048.021-876.783Zm343.583-10.278,13.978-9.425-4.406-3.183,1.9-1.284,6.308,4.487.221.329-16.584,11.185Zm-6.46-11.658a5.769,5.769,0,0,1-4.27-2.312,5.687,5.687,0,0,1-1.235-4.978,8.722,8.722,0,0,1,3.254-4.953l.752-.613q4.254-3.479,7.989-3.5t6.721,3.522l.283.347-1.661,1.357-.294-.357a6.659,6.659,0,0,0-4.332-2.535,7.266,7.266,0,0,0-4.974,1.453,5.4,5.4,0,0,1,4.112,2.183,5.155,5.155,0,0,1,1.208,4.371,7.069,7.069,0,0,1-2.682,4.193,7.161,7.161,0,0,1-4.569,1.828C-9710.7-898.712-9710.8-898.714-9710.9-898.72Zm-.145-10.681-.722.59a6.54,6.54,0,0,0-2.367,3.365c-.011.038-.021.076-.028.114a3.283,3.283,0,0,0,.613,2.978,3.2,3.2,0,0,0,2.671,1.281,5.21,5.21,0,0,0,3.173-1.324,5.242,5.242,0,0,0,1.938-2.866,3.176,3.176,0,0,0-.684-2.839,4.066,4.066,0,0,0-2.117-1.362,4.479,4.479,0,0,0-1.167-.161A3.92,3.92,0,0,0-9711.043-909.4Zm-313.105,4.333a8.689,8.689,0,0,1-5.416-2.408l-.727-.643q-4.122-3.635-4.748-7.316t2.388-7.2l.3-.337,1.61,1.421-.309.347a6.668,6.668,0,0,0-1.8,4.685,7.285,7.285,0,0,0,2.241,4.674,5.394,5.394,0,0,1,1.486-4.414,5.159,5.159,0,0,1,4.12-1.9,7.078,7.078,0,0,1,4.573,1.968,7.051,7.051,0,0,1,2.583,4.512,5.778,5.778,0,0,1-1.588,4.588,5.666,5.666,0,0,1-4.421,2.029C-10023.952-905.062-10024.05-905.064-10024.148-905.068Zm-3.679-9.481a4.038,4.038,0,0,0-1,2.309,4.052,4.052,0,0,0,.461,2.431l.7.615a6.516,6.516,0,0,0,3.7,1.793,3.316,3.316,0,0,0,2.955-1.076,3.213,3.213,0,0,0,.836-2.846,5.22,5.22,0,0,0-1.826-2.912,5.207,5.207,0,0,0-3.14-1.451c-.076,0-.152-.007-.227-.007A3.164,3.164,0,0,0-10027.827-914.548Zm301.994,1.053,12.182-11.653-4.877-2.39,1.659-1.585,6.974,3.353.275.289-14.456,13.826Zm-12.644-11.706a6.29,6.29,0,0,1-2.287-3.933,5.844,5.844,0,0,1,1.226-4.3l1.806,1.57a4.018,4.018,0,0,0-.777,2.742,3.79,3.79,0,0,0,1.388,2.363,3.421,3.421,0,0,0,2.877.912,5.028,5.028,0,0,0,2.942-1.843,4.641,4.641,0,0,0,1.286-3.132,3.7,3.7,0,0,0-1.383-2.811,4.181,4.181,0,0,0-2.436-1.162l-.863-.028-1.186-1.719,7.282-6.819,7.688,6.7-1.535,1.762-6.072-5.29-4.019,3.694a6.44,6.44,0,0,1,3.072,1.532,5.49,5.49,0,0,1,2.073,4.193,7.03,7.03,0,0,1-1.985,4.715,6.8,6.8,0,0,1-4.438,2.565,5.294,5.294,0,0,1-.53.027A6.242,6.242,0,0,1-9738.477-925.2Zm-265.685-21.078-8.361,6.794-1.31-1.613,10.44-8.483.9,1.1,5.257,19.546-2.059,1.671Zm252.993,10.519,10.043-13.542-5.212-1.532,1.367-1.843,7.442,2.132.316.233-11.916,16.064Zm-13.332-9.04,2.4-3.953-7.751-4.7.771-1.274,14.773-7.176,2.3,1.4-6.85,11.3,2.362,1.433-1.071,1.765-2.362-1.431-2.4,3.953Zm7.983-13.755-9.814,4.826,5.3,3.211,5.059-8.349ZM-9971.8-948.338a5.218,5.218,0,0,1-3.51-2.745,5.073,5.073,0,0,1-.648-2.973,5.5,5.5,0,0,1,1.175-2.909,5.21,5.21,0,0,1-2.712-.57,4.679,4.679,0,0,1-1.955-1.932,5.145,5.145,0,0,1-.534-4.272,6.048,6.048,0,0,1,3-3.36,6.06,6.06,0,0,1,4.426-.777,5.147,5.147,0,0,1,3.36,2.7,4.62,4.62,0,0,1,.6,2.7,5.324,5.324,0,0,1-.97,2.623,5.7,5.7,0,0,1,3.107.506,4.921,4.921,0,0,1,2.21,2.1,5.208,5.208,0,0,1,.481,4.444,6.712,6.712,0,0,1-3.262,3.57,7.3,7.3,0,0,1-3.553,1.028A5.547,5.547,0,0,1-9971.8-948.338Zm.131-9.156a3.691,3.691,0,0,0-1.889,2.241,3.716,3.716,0,0,0,.431,2.892,3.529,3.529,0,0,0,2.175,1.838,3.848,3.848,0,0,0,2.915-.514,3.831,3.831,0,0,0,1.96-2.211,3.516,3.516,0,0,0-.41-2.816,3.684,3.684,0,0,0-2.249-1.861,3.5,3.5,0,0,0-.945-.132A4.046,4.046,0,0,0-9971.671-957.495Zm-4.307-7.789a3.273,3.273,0,0,0-1.661,1.98,3.406,3.406,0,0,0,.415,2.641,3.384,3.384,0,0,0,1.99,1.7,3.22,3.22,0,0,0,2.575-.365,3.221,3.221,0,0,0,1.664-2,3.37,3.37,0,0,0-.4-2.588,3.372,3.372,0,0,0-2.028-1.7,3.193,3.193,0,0,0-.9-.131A3.372,3.372,0,0,0-9975.978-965.284Zm195.788,11.729,7.581-15.057-5.4-.62,1.036-2.054,7.692.828.357.18-8.992,17.865Zm-16.835-7.176a6.7,6.7,0,0,1-3.688-3.079,5.032,5.032,0,0,1-.175-4.371l2.367.929a3.242,3.242,0,0,0,.038,2.717,3.9,3.9,0,0,0,2.211,1.879,3.826,3.826,0,0,0,2.96.137,3.694,3.694,0,0,0,1.906-2.208,3.347,3.347,0,0,0-.018-2.872,4.665,4.665,0,0,0-2.517-2.013l-1.768-.694.752-1.919,1.77.691a4.188,4.188,0,0,0,2.968.152,3.165,3.165,0,0,0,1.856-1.93q1.28-3.263-1.968-4.533a3.6,3.6,0,0,0-2.777-.081,3.246,3.246,0,0,0-1.815,1.952l-2.355-.924a5.067,5.067,0,0,1,3.044-3.029,6.31,6.31,0,0,1,4.664.147,6.213,6.213,0,0,1,3.565,3,5.117,5.117,0,0,1,.2,3.808c-.061.208-.135.418-.218.633a4.356,4.356,0,0,1-1.7,2.033,5.1,5.1,0,0,1-2.793.858,4.871,4.871,0,0,1,1.729,2.53,4.762,4.762,0,0,1-.24,3.064,5.423,5.423,0,0,1-3.178,3.317,5.772,5.772,0,0,1-2.047.369A7.589,7.589,0,0,1-9797.024-960.731Zm-144.191-3.178.5-.177a6.97,6.97,0,0,0,3.982-3.155,7,7,0,0,0,.046-5.313,6.186,6.186,0,0,1-1.271,2.066,5.129,5.129,0,0,1-2.078,1.352,5.32,5.32,0,0,1-3.112.213,5.5,5.5,0,0,1-2.664-1.583,8.166,8.166,0,0,1-1.8-2.965,8.3,8.3,0,0,1-.493-3.641,5.574,5.574,0,0,1,1.2-3.029,6.158,6.158,0,0,1,2.778-1.894,5.564,5.564,0,0,1,5.128.514,9.631,9.631,0,0,1,3.631,5.1l.248.694q1.953,5.473.691,8.761t-5.6,4.915l-.464.167Zm-2.187-16.148a3.245,3.245,0,0,0-2.092,2.107,5.27,5.27,0,0,0,.18,3.515,5.512,5.512,0,0,0,2.051,2.831,3.1,3.1,0,0,0,2.91.362,3.915,3.915,0,0,0,1.947-1.524,4.633,4.633,0,0,0,.825-2.342l-.342-.952a6.969,6.969,0,0,0-2.378-3.446,3.525,3.525,0,0,0-2.062-.735A3.085,3.085,0,0,0-9943.4-980.057Zm131.485,13.874,5.1-16.064-5.427.241.694-2.188,7.73-.4.377.119-6.054,19.06Zm-23.839-5.766.367-1.78,8.3-6.105a16.23,16.23,0,0,0,2.641-2.34,4.687,4.687,0,0,0,1.025-2.081,3.574,3.574,0,0,0-.407-2.7,3.31,3.31,0,0,0-2.264-1.486,3.906,3.906,0,0,0-3.087.458,4.114,4.114,0,0,0-1.631,2.712l-2.474-.506a5.85,5.85,0,0,1,2.631-3.993,6.546,6.546,0,0,1,4.98-.706,6.33,6.33,0,0,1,4.006,2.314,4.979,4.979,0,0,1,.8,4.122q-.593,2.875-5.085,6.1l-6.392,4.586,9.79,2.021-.418,2.021Zm-80.471-14.674-4.586,2.915-.486-2.244,6.5-4.2.385-.086,4.26,19.544-2.487.542Zm14.486,12.471q-1.8-1.884-2.428-6.037l-.459-3.345q-.6-4.349.621-6.667a5.432,5.432,0,0,1,4.421-2.76,5.486,5.486,0,0,1,4.966,1.4q1.784,1.835,2.41,6.08l.443,3.251a12.86,12.86,0,0,1-.321,6.1,5.985,5.985,0,0,1-.284.648,5.411,5.411,0,0,1-4.408,2.785,8.386,8.386,0,0,1-1.129.08A5.058,5.058,0,0,1-9901.741-974.152Zm2.438-16.748a3.064,3.064,0,0,0-2.605,1.833c-.027.066-.056.132-.081.2a9.559,9.559,0,0,0-.215,4.381l.549,4.011a9.436,9.436,0,0,0,1.573,4.593,3.11,3.11,0,0,0,3.021,1.14,3.064,3.064,0,0,0,2.561-1.818,9.1,9.1,0,0,0,.321-4.649l-.562-4.107a9.257,9.257,0,0,0-1.529-4.515,2.957,2.957,0,0,0-2.409-1.113A4.6,4.6,0,0,0-9899.3-990.9Zm53.782,17.594,2.109-16.725-5.295,1.221.286-2.282,7.53-1.793.393.051-2.5,19.845Zm-17.017-1.37.661-16.844-5.169,1.671.089-2.3,7.349-2.433.4.015-.785,19.987Zm-16.308-16.809-5.021,2.076-.094-2.294,7.136-3.008.4-.015.792,19.987-2.542.1Z"
                transform="translate(10203.871 1165.883)"
                fill="#e5e5e5"
        />
        <path
                d="M230.542,460.056A230.249,230.249,0,1,1,442.728,318.369,230.352,230.352,0,0,1,230.542,460.056Zm0-458.233C104.377,1.823,2.1,103.992,2.1,230.024s102.277,228.2,228.442,228.2,228.442-102.17,228.442-228.2S356.707,1.823,230.542,1.823Zm0,417.223a189.12,189.12,0,1,1,133.8-55.363A188.085,188.085,0,0,1,230.542,419.046Zm0-376.212c-103.492,0-187.388,83.809-187.388,187.191s83.9,187.192,187.388,187.192,187.389-83.809,187.389-187.192S334.034,42.833,230.542,42.833Z"
                transform="translate(103.731 161.04)"
                fill="#d1d1d1"
                fill-rule="evenodd"
        />
    </g>
</svg>
